<svg xmlns="http://www.w3.org/2000/svg" xmlns:xlink="http://www.w3.org/1999/xlink" width="1600" height="350"><defs><linearGradient id="a" x1="50%" x2="50%" y1="45.084%" y2="0%"><stop offset="0%" stop-color="#FFF"/><stop offset="100%" stop-color="#F2F6FE"/></linearGradient><linearGradient id="b" x1="0%" x2="100%" y1="50%" y2="45.47%"><stop offset="0%" stop-color="#6A4DEA"/><stop offset="100%" stop-color="#C3A4E2"/></linearGradient><linearGradient id="c" x1="40.048%" x2="28.834%" y1="31.849%" y2="7.547%"><stop offset="0%" stop-color="#FCE38A"/><stop offset="100%" stop-color="#EF814C"/></linearGradient><linearGradient id="d" x1="40.048%" x2="28.834%" y1="31.849%" y2="7.547%"><stop offset="0%" stop-color="#FCE38A"/><stop offset="100%" stop-color="#EF814C"/></linearGradient><linearGradient id="e" x1="40.048%" x2="28.834%" y1="31.849%" y2="7.547%"><stop offset="0%" stop-color="#FCE38A"/><stop offset="100%" stop-color="#EF814C"/></linearGradient><linearGradient id="f" x1="40.048%" x2="28.834%" y1="31.849%" y2="7.547%"><stop offset="0%" stop-color="#FCE38A"/><stop offset="100%" stop-color="#EF814C"/></linearGradient><linearGradient id="g" x1="40.048%" x2="28.834%" y1="31.849%" y2="7.547%"><stop offset="0%" stop-color="#FCE38A"/><stop offset="100%" stop-color="#EF814C"/></linearGradient><linearGradient id="h" x1="40.048%" x2="28.834%" y1="31.849%" y2="7.547%"><stop offset="0%" stop-color="#FCE38A"/><stop offset="100%" stop-color="#EF814C"/></linearGradient><linearGradient id="i" x1="40.048%" x2="28.834%" y1="31.849%" y2="7.547%"><stop offset="0%" stop-color="#FCE38A"/><stop offset="100%" stop-color="#EF814C"/></linearGradient><linearGradient id="j" x1="0%" x2="100%" y1="50%" y2="46.756%"><stop offset="0%" stop-color="#6A4DEA"/><stop offset="100%" stop-color="#C3A4E2"/></linearGradient><linearGradient id="k" x1="50%" x2="60.936%" y1="144.398%" y2="0%"><stop offset="0%" stop-color="#6727FB"/><stop offset="100%" stop-color="#FCFBFF"/></linearGradient><linearGradient id="l" x1="50%" x2="60.936%" y1="144.398%" y2="0%"><stop offset="0%" stop-color="#6727FB"/><stop offset="100%" stop-color="#FCFBFF"/></linearGradient><linearGradient id="m" x1="50%" x2="60.936%" y1="144.398%" y2="0%"><stop offset="0%" stop-color="#6727FB"/><stop offset="100%" stop-color="#FCFBFF"/></linearGradient><linearGradient id="n" x1="50%" x2="60.936%" y1="144.398%" y2="0%"><stop offset="0%" stop-color="#6727FB"/><stop offset="100%" stop-color="#FCFBFF"/></linearGradient><linearGradient id="o" x1="50%" x2="60.936%" y1="144.398%" y2="0%"><stop offset="0%" stop-color="#6727FB"/><stop offset="100%" stop-color="#FCFBFF"/></linearGradient><linearGradient id="p" x1="-59.29%" x2="67.44%" y1="50.503%" y2="49.971%"><stop offset="0%" stop-color="#6727FB"/><stop offset="100%" stop-color="#FFF"/></linearGradient><linearGradient id="q" x1="-59.29%" x2="67.44%" y1="50.029%" y2="49.998%"><stop offset="0%" stop-color="#6727FB"/><stop offset="100%" stop-color="#FFF"/></linearGradient><linearGradient id="r" x1="-59.29%" x2="67.44%" y1="50.035%" y2="49.998%"><stop offset="0%" stop-color="#6727FB"/><stop offset="100%" stop-color="#FFF"/></linearGradient><linearGradient id="s" x1="-59.29%" x2="67.44%" y1="50.118%" y2="49.993%"><stop offset="0%" stop-color="#6727FB"/><stop offset="100%" stop-color="#FFF"/></linearGradient><linearGradient id="t" x1="72.718%" x2="56.658%" y1="79.789%" y2="-26.953%"><stop offset="0%" stop-color="#6727FB"/><stop offset="100%" stop-color="#ECE2FF"/></linearGradient><linearGradient id="w" x1="50%" x2="50%" y1="0%" y2="100%"><stop offset="0%" stop-color="#FFF"/><stop offset="100%" stop-color="#FFF"/></linearGradient><filter id="u" width="153.1%" height="153.1%" x="-26.6%" y="-20.6%" filterUnits="objectBoundingBox"><feOffset dy="13" in="SourceAlpha" result="shadowOffsetOuter1"/><feGaussianBlur in="shadowOffsetOuter1" result="shadowBlurOuter1" stdDeviation="17"/><feComposite in="shadowBlurOuter1" in2="SourceAlpha" operator="out" result="shadowBlurOuter1"/><feColorMatrix in="shadowBlurOuter1" values="0 0 0 0 0.883359075 0 0 0 0 0.850669898 0 0 0 0 1 0 0 0 1 0"/></filter><filter id="z" width="124.8%" height="286.1%" x="-12.3%" y="-93.1%" filterUnits="objectBoundingBox"><feOffset dy="10" in="SourceAlpha" result="shadowOffsetOuter1"/><feMorphology in="SourceAlpha" radius="1" result="shadowInner"/><feOffset dy="10" in="shadowInner" result="shadowInner"/><feComposite in="shadowOffsetOuter1" in2="shadowInner" operator="out" result="shadowOffsetOuter1"/><feGaussianBlur in="shadowOffsetOuter1" result="shadowBlurOuter1" stdDeviation="3.5"/><feColorMatrix in="shadowBlurOuter1" result="shadowMatrixOuter1" values="0 0 0 0 0.884788371 0 0 0 0 0.852499762 0 0 0 0 1 0 0 0 1 0"/><feMerge><feMergeNode in="shadowMatrixOuter1"/><feMergeNode in="SourceGraphic"/></feMerge></filter><filter id="C" width="153.1%" height="153.1%" x="-26.6%" y="-20.6%" filterUnits="objectBoundingBox"><feOffset dy="13" in="SourceAlpha" result="shadowOffsetOuter1"/><feGaussianBlur in="shadowOffsetOuter1" result="shadowBlurOuter1" stdDeviation="17"/><feComposite in="shadowBlurOuter1" in2="SourceAlpha" operator="out" result="shadowBlurOuter1"/><feColorMatrix in="shadowBlurOuter1" values="0 0 0 0 0.883359075 0 0 0 0 0.850669898 0 0 0 0 1 0 0 0 1 0"/></filter><filter id="E" width="124.2%" height="263.4%" x="-12.1%" y="-81.7%" filterUnits="objectBoundingBox"><feOffset dy="10" in="SourceAlpha" result="shadowOffsetOuter1"/><feMorphology in="SourceAlpha" radius="1" result="shadowInner"/><feOffset dy="10" in="shadowInner" result="shadowInner"/><feComposite in="shadowOffsetOuter1" in2="shadowInner" operator="out" result="shadowOffsetOuter1"/><feGaussianBlur in="shadowOffsetOuter1" result="shadowBlurOuter1" stdDeviation="3.5"/><feColorMatrix in="shadowBlurOuter1" result="shadowMatrixOuter1" values="0 0 0 0 0.884788371 0 0 0 0 0.852499762 0 0 0 0 1 0 0 0 1 0"/><feMerge><feMergeNode in="shadowMatrixOuter1"/><feMergeNode in="SourceGraphic"/></feMerge></filter><path id="x" d="M.879.011H11.83v7.304H.879z"/><path id="A" d="M.64.527h28.117v34.072H.64z"/><path id="F" d="M.105.159h25.722v28.835H.105z"/><path id="H" d="M.105.159h25.722v28.835H.105z"/><circle id="v" cx="108.266" cy="108.266" r="108.266"/><circle id="D" cx="108.266" cy="108.266" r="108.266"/></defs><g fill="none" fill-rule="evenodd"><path fill="#FFF" d="M0 0h1600v350H0z"/><path fill="url(#a)" d="M0 0h1600v350H0z"/><path fill="#BBA8FF" fill-rule="nonzero" d="M27.328 325.108a1.328 1.328 0 110 2.656 1.328 1.328 0 010-2.656zm9.036 0a1.328 1.328 0 110 2.656 1.328 1.328 0 010-2.656zm9.036 0a1.328 1.328 0 110 2.656 1.328 1.328 0 010-2.656zm9.036 0a1.328 1.328 0 110 2.656 1.328 1.328 0 010-2.656zm9.035 0a1.328 1.328 0 110 2.656 1.328 1.328 0 010-2.656zm9.036 0a1.328 1.328 0 110 2.656 1.328 1.328 0 010-2.656zm9.036 0a1.328 1.328 0 110 2.656 1.328 1.328 0 010-2.656zm9.036 0a1.328 1.328 0 110 2.656 1.328 1.328 0 010-2.656zm9.036 0a1.328 1.328 0 110 2.656 1.328 1.328 0 010-2.656zm9.036 0a1.328 1.328 0 110 2.656 1.328 1.328 0 010-2.656zm9.036 0a1.328 1.328 0 110 2.656 1.328 1.328 0 010-2.656zm9.036 0a1.328 1.328 0 110 2.656 1.328 1.328 0 010-2.656zm9.036 0a1.328 1.328 0 110 2.656 1.328 1.328 0 010-2.656zm9.035 0a1.328 1.328 0 110 2.656 1.328 1.328 0 010-2.656zm9.036 0a1.328 1.328 0 110 2.656 1.328 1.328 0 010-2.656zm9.036 0a1.328 1.328 0 110 2.656 1.328 1.328 0 010-2.656zm9.036 0a1.328 1.328 0 110 2.656 1.328 1.328 0 010-2.656zm9.036 0a1.328 1.328 0 110 2.656 1.328 1.328 0 010-2.656zm9.036 0a1.328 1.328 0 110 2.656 1.328 1.328 0 010-2.656zm9.036 0a1.328 1.328 0 110 2.656 1.328 1.328 0 010-2.656zm9.036 0a1.328 1.328 0 110 2.656 1.328 1.328 0 010-2.656zm9.035 0a1.328 1.328 0 110 2.656 1.328 1.328 0 010-2.656zm9.036 0a1.328 1.328 0 110 2.656 1.328 1.328 0 010-2.656zm9.036 0a1.328 1.328 0 110 2.656 1.328 1.328 0 010-2.656zm9.036 0a1.328 1.328 0 110 2.656 1.328 1.328 0 010-2.656zm9.036 0a1.328 1.328 0 110 2.656 1.328 1.328 0 010-2.656zm9.036 0a1.328 1.328 0 110 2.656 1.328 1.328 0 010-2.656zm9.036 0a1.328 1.328 0 110 2.656 1.328 1.328 0 010-2.656zm9.036 0a1.328 1.328 0 110 2.656 1.328 1.328 0 010-2.656zm9.036 0a1.328 1.328 0 110 2.656 1.328 1.328 0 010-2.656zm9.035 0a1.328 1.328 0 110 2.656 1.328 1.328 0 010-2.656zm9.036 0a1.328 1.328 0 110 2.656 1.328 1.328 0 010-2.656zm9.036 0a1.328 1.328 0 110 2.656 1.328 1.328 0 010-2.656zm9.036 0a1.328 1.328 0 110 2.656 1.328 1.328 0 010-2.656zm9.036 0a1.328 1.328 0 110 2.656 1.328 1.328 0 010-2.656zm9.036 0a1.328 1.328 0 110 2.656 1.328 1.328 0 010-2.656zm9.036 0a1.328 1.328 0 110 2.656 1.328 1.328 0 010-2.656zm9.036 0a1.328 1.328 0 110 2.656 1.328 1.328 0 010-2.656zm9.036 0a1.328 1.328 0 110 2.656 1.328 1.328 0 010-2.656zm9.035 0a1.328 1.328 0 110 2.656 1.328 1.328 0 010-2.656zm9.036 0a1.328 1.328 0 110 2.656 1.328 1.328 0 010-2.656zm9.036 0a1.328 1.328 0 110 2.656 1.328 1.328 0 010-2.656zm9.036 0a1.328 1.328 0 110 2.656 1.328 1.328 0 010-2.656zm-379.507-9.036a1.328 1.328 0 110 2.656 1.328 1.328 0 010-2.656zm9.036 0a1.328 1.328 0 110 2.656 1.328 1.328 0 010-2.656zm9.036 0a1.328 1.328 0 110 2.656 1.328 1.328 0 010-2.656zm9.036 0a1.328 1.328 0 110 2.656 1.328 1.328 0 010-2.656zm9.035 0a1.328 1.328 0 110 2.656 1.328 1.328 0 010-2.656zm9.036 0a1.328 1.328 0 110 2.656 1.328 1.328 0 010-2.656zm9.036 0a1.328 1.328 0 110 2.656 1.328 1.328 0 010-2.656zm9.036 0a1.328 1.328 0 110 2.656 1.328 1.328 0 010-2.656zm9.036 0a1.328 1.328 0 110 2.656 1.328 1.328 0 010-2.656zm9.036 0a1.328 1.328 0 110 2.656 1.328 1.328 0 010-2.656zm9.036 0a1.328 1.328 0 110 2.656 1.328 1.328 0 010-2.656zm9.036 0a1.328 1.328 0 110 2.656 1.328 1.328 0 010-2.656zm9.036 0a1.328 1.328 0 110 2.656 1.328 1.328 0 010-2.656zm9.035 0a1.328 1.328 0 110 2.656 1.328 1.328 0 010-2.656zm9.036 0a1.328 1.328 0 110 2.656 1.328 1.328 0 010-2.656zm9.036 0a1.328 1.328 0 110 2.656 1.328 1.328 0 010-2.656zm9.036 0a1.328 1.328 0 110 2.656 1.328 1.328 0 010-2.656zm9.036 0a1.328 1.328 0 110 2.656 1.328 1.328 0 010-2.656zm9.036 0a1.328 1.328 0 110 2.656 1.328 1.328 0 010-2.656zm9.036 0a1.328 1.328 0 110 2.656 1.328 1.328 0 010-2.656zm9.036 0a1.328 1.328 0 110 2.656 1.328 1.328 0 010-2.656zm9.035 0a1.328 1.328 0 110 2.656 1.328 1.328 0 010-2.656zm9.036 0a1.328 1.328 0 110 2.656 1.328 1.328 0 010-2.656zm9.036 0a1.328 1.328 0 110 2.656 1.328 1.328 0 010-2.656zm9.036 0a1.328 1.328 0 110 2.656 1.328 1.328 0 010-2.656zm9.036 0a1.328 1.328 0 110 2.656 1.328 1.328 0 010-2.656zm9.036 0a1.328 1.328 0 110 2.656 1.328 1.328 0 010-2.656zm9.036 0a1.328 1.328 0 110 2.656 1.328 1.328 0 010-2.656zm9.036 0a1.328 1.328 0 110 2.656 1.328 1.328 0 010-2.656zm9.036 0a1.328 1.328 0 110 2.656 1.328 1.328 0 010-2.656zm9.035 0a1.328 1.328 0 110 2.656 1.328 1.328 0 010-2.656zm9.036 0a1.328 1.328 0 110 2.656 1.328 1.328 0 010-2.656zm9.036 0a1.328 1.328 0 110 2.656 1.328 1.328 0 010-2.656zm9.036 0a1.328 1.328 0 110 2.656 1.328 1.328 0 010-2.656zm9.036 0a1.328 1.328 0 110 2.656 1.328 1.328 0 010-2.656zm9.036 0a1.328 1.328 0 110 2.656 1.328 1.328 0 010-2.656zm9.036 0a1.328 1.328 0 110 2.656 1.328 1.328 0 010-2.656zm9.036 0a1.328 1.328 0 110 2.656 1.328 1.328 0 010-2.656zm9.036 0a1.328 1.328 0 110 2.656 1.328 1.328 0 010-2.656zm9.035 0a1.328 1.328 0 110 2.656 1.328 1.328 0 010-2.656zm9.036 0a1.328 1.328 0 110 2.656 1.328 1.328 0 010-2.656zm9.036 0a1.328 1.328 0 110 2.656 1.328 1.328 0 010-2.656zm9.036 0a1.328 1.328 0 110 2.656 1.328 1.328 0 010-2.656zm-180.718-9.036a1.328 1.328 0 110 2.656 1.328 1.328 0 010-2.656zm-198.79 0a1.328 1.328 0 11.001 2.656 1.328 1.328 0 010-2.656zm99.396 0a1.328 1.328 0 110 2.656 1.328 1.328 0 010-2.656zm-63.252 0a1.328 1.328 0 110 2.656 1.328 1.328 0 010-2.656zm171.682 0a1.328 1.328 0 110 2.656 1.328 1.328 0 010-2.656zm-135.538 0a1.328 1.328 0 110 2.656 1.328 1.328 0 010-2.656zm-45.18 0a1.328 1.328 0 110 2.656 1.328 1.328 0 010-2.656zm81.324 0a1.328 1.328 0 110 2.656 1.328 1.328 0 010-2.656zm117.466 0a1.328 1.328 0 110 2.656 1.328 1.328 0 010-2.656zm-81.323 0a1.328 1.328 0 110 2.656 1.328 1.328 0 010-2.656zm-27.108 0a1.328 1.328 0 110 2.656 1.328 1.328 0 010-2.656zm63.252 0a1.328 1.328 0 110 2.656 1.328 1.328 0 010-2.656zm63.25 0a1.328 1.328 0 110 2.656 1.328 1.328 0 010-2.656zm-27.107 0a1.328 1.328 0 110 2.656 1.328 1.328 0 010-2.656zm-153.61 0a1.328 1.328 0 110 2.656 1.328 1.328 0 010-2.656zm189.754 0a1.328 1.328 0 110 2.656 1.328 1.328 0 010-2.656zm9.036 0a1.328 1.328 0 110 2.656 1.328 1.328 0 010-2.656zm27.107 0a1.328 1.328 0 110 2.656 1.328 1.328 0 010-2.656zm-153.61 0a1.328 1.328 0 110 2.656 1.328 1.328 0 010-2.656zm189.754 0a1.328 1.328 0 110 2.656 1.328 1.328 0 010-2.656zm-45.18 0a1.328 1.328 0 110 2.656 1.328 1.328 0 010-2.656zm81.323 0a1.328 1.328 0 110 2.656 1.328 1.328 0 010-2.656zm-352.4 0a1.328 1.328 0 110 2.656 1.328 1.328 0 010-2.656zm9.037 0a1.328 1.328 0 110 2.656 1.328 1.328 0 010-2.656zm280.112 0a1.328 1.328 0 110 2.656 1.328 1.328 0 010-2.656zm-207.825 0a1.328 1.328 0 110 2.656 1.328 1.328 0 010-2.656zm63.251 0a1.328 1.328 0 110 2.656 1.328 1.328 0 010-2.656zm9.036 0a1.328 1.328 0 110 2.656 1.328 1.328 0 010-2.656zm153.61 0a1.328 1.328 0 110 2.656 1.328 1.328 0 010-2.656zm-81.323 0a1.328 1.328 0 110 2.656 1.328 1.328 0 010-2.656zm-153.61 0a1.328 1.328 0 110 2.656 1.328 1.328 0 010-2.656zm225.897 0a1.328 1.328 0 110 2.656 1.328 1.328 0 010-2.656zm27.108 0a1.328 1.328 0 110 2.656 1.328 1.328 0 010-2.656zm45.18 0a1.328 1.328 0 110 2.656 1.328 1.328 0 010-2.656zm-207.826 0a1.328 1.328 0 110 2.656 1.328 1.328 0 010-2.656zm-45.18 0a1.328 1.328 0 110 2.656 1.328 1.328 0 010-2.656zm225.897 0a1.328 1.328 0 110 2.656 1.328 1.328 0 010-2.656zm-81.323 0a1.328 1.328 0 110 2.656 1.328 1.328 0 010-2.656zm-225.897 0a1.328 1.328 0 110 2.656 1.328 1.328 0 010-2.656zm9.036 0a1.328 1.328 0 110 2.656 1.328 1.328 0 010-2.656zm316.256 0a1.328 1.328 0 110 2.656 1.328 1.328 0 010-2.656zm-27.107 0a1.328 1.328 0 110 2.656 1.328 1.328 0 010-2.656zm-153.61 0a1.328 1.328 0 110 2.656 1.328 1.328 0 010-2.656zm18.07-9.036a1.328 1.328 0 110 2.656 1.328 1.328 0 010-2.656zM45.4 298a1.328 1.328 0 110 2.656 1.328 1.328 0 010-2.656zm198.79 0a1.328 1.328 0 110 2.656 1.328 1.328 0 010-2.656zm-180.72 0a1.328 1.328 0 110 2.656 1.328 1.328 0 010-2.656zm189.754 0a1.328 1.328 0 110 2.656 1.328 1.328 0 010-2.656zm-171.682 0a1.328 1.328 0 110 2.656 1.328 1.328 0 010-2.656zm180.718 0a1.328 1.328 0 110 2.656 1.328 1.328 0 010-2.656zm-162.646 0a1.328 1.328 0 110 2.656 1.328 1.328 0 010-2.656zm171.682 0a1.328 1.328 0 110 2.656 1.328 1.328 0 010-2.656zm-153.61 0a1.328 1.328 0 110 2.656 1.328 1.328 0 010-2.656zm162.646 0a1.328 1.328 0 110 2.656 1.328 1.328 0 010-2.656zm-144.574 0a1.328 1.328 0 110 2.656 1.328 1.328 0 010-2.656zm153.61 0a1.328 1.328 0 110 2.656 1.328 1.328 0 010-2.656zm-135.539 0a1.328 1.328 0 110 2.656 1.328 1.328 0 010-2.656zm144.574 0a1.328 1.328 0 110 2.656 1.328 1.328 0 010-2.656zm-126.502 0a1.328 1.328 0 110 2.656 1.328 1.328 0 010-2.656zm135.538 0a1.328 1.328 0 110 2.656 1.328 1.328 0 010-2.656zm-117.466 0a1.328 1.328 0 110 2.656 1.328 1.328 0 010-2.656zm126.502 0a1.328 1.328 0 110 2.656 1.328 1.328 0 010-2.656zm-108.43 0a1.328 1.328 0 110 2.656 1.328 1.328 0 010-2.656zm117.466 0a1.328 1.328 0 110 2.656 1.328 1.328 0 010-2.656zm-289.148 0a1.328 1.328 0 110 2.656 1.328 1.328 0 010-2.656zm298.184 0a1.328 1.328 0 110 2.656 1.328 1.328 0 010-2.656zm-262.04 0a1.328 1.328 0 110 2.656 1.328 1.328 0 010-2.656zm271.076 0a1.328 1.328 0 110 2.656 1.328 1.328 0 010-2.656zm-234.933 0a1.328 1.328 0 110 2.656 1.328 1.328 0 010-2.656zm243.969 0a1.328 1.328 0 110 2.656 1.328 1.328 0 010-2.656zm-207.826 0a1.328 1.328 0 110 2.656 1.328 1.328 0 010-2.656zm216.862 0a1.328 1.328 0 110 2.656 1.328 1.328 0 010-2.656zm-180.718 0a1.328 1.328 0 110 2.656 1.328 1.328 0 010-2.656zm189.754 0a1.328 1.328 0 110 2.656 1.328 1.328 0 010-2.656zm-153.61 0a1.328 1.328 0 110 2.656 1.328 1.328 0 010-2.656zm162.645 0a1.328 1.328 0 110 2.656 1.328 1.328 0 010-2.656zM90.58 298a1.328 1.328 0 110 2.656 1.328 1.328 0 010-2.656zm298.184 0a1.328 1.328 0 110 2.656 1.328 1.328 0 010-2.656zm-225.897 0a1.328 1.328 0 110 2.656 1.328 1.328 0 010-2.656zm234.933 0a1.328 1.328 0 110 2.656 1.328 1.328 0 010-2.656zm-343.363 0a1.328 1.328 0 110 2.656 1.328 1.328 0 010-2.656zm352.4 0a1.328 1.328 0 110 2.656 1.328 1.328 0 010-2.656zm-207.826 0a1.328 1.328 0 110 2.656 1.328 1.328 0 010-2.656zm27.107 0a1.328 1.328 0 110 2.656 1.328 1.328 0 010-2.656zm-99.394 0a1.328 1.328 0 110 2.656 1.328 1.328 0 010-2.656zm-99.395 0a1.328 1.328 0 110 2.656 1.328 1.328 0 010-2.656z" opacity=".585"/><path fill="#BBA8FF" fill-rule="nonzero" d="M1130.575 84.302a1.575 1.575 0 110 3.15 1.575 1.575 0 010-3.15zm10.717 0a1.575 1.575 0 110 3.15 1.575 1.575 0 010-3.15zm10.717 0a1.575 1.575 0 110 3.15 1.575 1.575 0 010-3.15zm10.717 0a1.575 1.575 0 110 3.15 1.575 1.575 0 010-3.15zm10.717 0a1.575 1.575 0 110 3.15 1.575 1.575 0 010-3.15zm10.717 0a1.575 1.575 0 110 3.15 1.575 1.575 0 010-3.15zm10.717 0a1.575 1.575 0 110 3.15 1.575 1.575 0 010-3.15zm10.718 0a1.575 1.575 0 110 3.15 1.575 1.575 0 010-3.15zm10.717 0a1.575 1.575 0 110 3.15 1.575 1.575 0 010-3.15zm10.717 0a1.575 1.575 0 110 3.15 1.575 1.575 0 010-3.15zm10.717 0a1.575 1.575 0 110 3.15 1.575 1.575 0 010-3.15zm10.717 0a1.575 1.575 0 110 3.15 1.575 1.575 0 010-3.15zm10.717 0a1.575 1.575 0 110 3.15 1.575 1.575 0 010-3.15zm10.717 0a1.575 1.575 0 110 3.15 1.575 1.575 0 010-3.15zm10.717 0a1.575 1.575 0 110 3.15 1.575 1.575 0 010-3.15zm10.717 0a1.575 1.575 0 110 3.15 1.575 1.575 0 010-3.15zm10.717 0a1.575 1.575 0 110 3.15 1.575 1.575 0 010-3.15zm10.717 0a1.575 1.575 0 110 3.15 1.575 1.575 0 010-3.15zm10.717 0a1.575 1.575 0 110 3.15 1.575 1.575 0 010-3.15zm10.717 0a1.575 1.575 0 110 3.15 1.575 1.575 0 010-3.15zm10.718 0a1.575 1.575 0 110 3.15 1.575 1.575 0 010-3.15zm10.717 0a1.575 1.575 0 110 3.15 1.575 1.575 0 010-3.15zm10.717 0a1.575 1.575 0 110 3.15 1.575 1.575 0 010-3.15zm10.717 0a1.575 1.575 0 110 3.15 1.575 1.575 0 010-3.15zm10.717 0a1.575 1.575 0 110 3.15 1.575 1.575 0 010-3.15zm10.717 0a1.575 1.575 0 110 3.15 1.575 1.575 0 010-3.15zm10.717 0a1.575 1.575 0 110 3.15 1.575 1.575 0 010-3.15zm10.717 0a1.575 1.575 0 110 3.15 1.575 1.575 0 010-3.15zm10.717 0a1.575 1.575 0 110 3.15 1.575 1.575 0 010-3.15zm10.717 0a1.575 1.575 0 110 3.15 1.575 1.575 0 010-3.15zm10.717 0a1.575 1.575 0 110 3.15 1.575 1.575 0 010-3.15zm10.717 0a1.575 1.575 0 110 3.15 1.575 1.575 0 010-3.15zm10.717 0a1.575 1.575 0 110 3.15 1.575 1.575 0 010-3.15zm10.717 0a1.575 1.575 0 110 3.15 1.575 1.575 0 010-3.15zm10.718 0a1.575 1.575 0 110 3.15 1.575 1.575 0 010-3.15zm10.717 0a1.575 1.575 0 110 3.15 1.575 1.575 0 010-3.15zm10.717 0a1.575 1.575 0 110 3.15 1.575 1.575 0 010-3.15zm10.717 0a1.575 1.575 0 110 3.15 1.575 1.575 0 010-3.15zm10.717 0a1.575 1.575 0 110 3.15 1.575 1.575 0 010-3.15zm10.717 0a1.575 1.575 0 110 3.15 1.575 1.575 0 010-3.15zm-417.966-10.717a1.575 1.575 0 110 3.15 1.575 1.575 0 010-3.15zm10.717 0a1.575 1.575 0 110 3.15 1.575 1.575 0 010-3.15zm10.717 0a1.575 1.575 0 110 3.15 1.575 1.575 0 010-3.15zm10.717 0a1.575 1.575 0 110 3.15 1.575 1.575 0 010-3.15zm10.717 0a1.575 1.575 0 110 3.15 1.575 1.575 0 010-3.15zm10.717 0a1.575 1.575 0 110 3.15 1.575 1.575 0 010-3.15zm10.717 0a1.575 1.575 0 110 3.15 1.575 1.575 0 010-3.15zm10.718 0a1.575 1.575 0 110 3.15 1.575 1.575 0 010-3.15zm10.717 0a1.575 1.575 0 110 3.15 1.575 1.575 0 010-3.15zm10.717 0a1.575 1.575 0 110 3.15 1.575 1.575 0 010-3.15zm10.717 0a1.575 1.575 0 110 3.15 1.575 1.575 0 010-3.15zm10.717 0a1.575 1.575 0 110 3.15 1.575 1.575 0 010-3.15zm10.717 0a1.575 1.575 0 110 3.15 1.575 1.575 0 010-3.15zm10.717 0a1.575 1.575 0 110 3.15 1.575 1.575 0 010-3.15zm10.717 0a1.575 1.575 0 110 3.15 1.575 1.575 0 010-3.15zm10.717 0a1.575 1.575 0 110 3.15 1.575 1.575 0 010-3.15zm10.717 0a1.575 1.575 0 110 3.15 1.575 1.575 0 010-3.15zm10.717 0a1.575 1.575 0 110 3.15 1.575 1.575 0 010-3.15zm10.717 0a1.575 1.575 0 110 3.15 1.575 1.575 0 010-3.15zm10.717 0a1.575 1.575 0 110 3.15 1.575 1.575 0 010-3.15zm10.718 0a1.575 1.575 0 110 3.15 1.575 1.575 0 010-3.15zm10.717 0a1.575 1.575 0 110 3.15 1.575 1.575 0 010-3.15zm10.717 0a1.575 1.575 0 110 3.15 1.575 1.575 0 010-3.15zm10.717 0a1.575 1.575 0 110 3.15 1.575 1.575 0 010-3.15zm10.717 0a1.575 1.575 0 110 3.15 1.575 1.575 0 010-3.15zm10.717 0a1.575 1.575 0 110 3.15 1.575 1.575 0 010-3.15zm10.717 0a1.575 1.575 0 110 3.15 1.575 1.575 0 010-3.15zm10.717 0a1.575 1.575 0 110 3.15 1.575 1.575 0 010-3.15zm10.717 0a1.575 1.575 0 110 3.15 1.575 1.575 0 010-3.15zm10.717 0a1.575 1.575 0 110 3.15 1.575 1.575 0 010-3.15zm10.717 0a1.575 1.575 0 110 3.15 1.575 1.575 0 010-3.15zm10.717 0a1.575 1.575 0 110 3.15 1.575 1.575 0 010-3.15zm10.717 0a1.575 1.575 0 110 3.15 1.575 1.575 0 010-3.15zm10.717 0a1.575 1.575 0 110 3.15 1.575 1.575 0 010-3.15zm10.718 0a1.575 1.575 0 110 3.15 1.575 1.575 0 010-3.15zm10.717 0a1.575 1.575 0 110 3.15 1.575 1.575 0 010-3.15zm10.717 0a1.575 1.575 0 110 3.15 1.575 1.575 0 010-3.15zm10.717 0a1.575 1.575 0 110 3.15 1.575 1.575 0 010-3.15zm10.717 0a1.575 1.575 0 110 3.15 1.575 1.575 0 010-3.15zm10.717 0a1.575 1.575 0 110 3.15 1.575 1.575 0 010-3.15zm-417.966-10.717a1.575 1.575 0 110 3.15 1.575 1.575 0 010-3.15zm417.966 0a1.575 1.575 0 110 3.15 1.575 1.575 0 010-3.15zm-407.249 0a1.575 1.575 0 110 3.15 1.575 1.575 0 010-3.15zm10.717 0a1.575 1.575 0 110 3.15 1.575 1.575 0 010-3.15zm10.717 0a1.575 1.575 0 110 3.15 1.575 1.575 0 010-3.15zm10.717 0a1.575 1.575 0 110 3.15 1.575 1.575 0 010-3.15zm10.717 0a1.575 1.575 0 110 3.15 1.575 1.575 0 010-3.15zm10.717 0a1.575 1.575 0 110 3.15 1.575 1.575 0 010-3.15zm10.718 0a1.575 1.575 0 110 3.15 1.575 1.575 0 010-3.15zm10.717 0a1.575 1.575 0 110 3.15 1.575 1.575 0 010-3.15zm10.717 0a1.575 1.575 0 110 3.15 1.575 1.575 0 010-3.15zm10.717 0a1.575 1.575 0 110 3.15 1.575 1.575 0 010-3.15zm10.717 0a1.575 1.575 0 110 3.15 1.575 1.575 0 010-3.15zm10.717 0a1.575 1.575 0 110 3.15 1.575 1.575 0 010-3.15zm10.717 0a1.575 1.575 0 110 3.15 1.575 1.575 0 010-3.15zm10.717 0a1.575 1.575 0 110 3.15 1.575 1.575 0 010-3.15zm10.717 0a1.575 1.575 0 110 3.15 1.575 1.575 0 010-3.15zm10.717 0a1.575 1.575 0 110 3.15 1.575 1.575 0 010-3.15zm10.717 0a1.575 1.575 0 110 3.15 1.575 1.575 0 010-3.15zm10.717 0a1.575 1.575 0 110 3.15 1.575 1.575 0 010-3.15zm10.717 0a1.575 1.575 0 110 3.15 1.575 1.575 0 010-3.15zm10.718 0a1.575 1.575 0 110 3.15 1.575 1.575 0 010-3.15zm10.717 0a1.575 1.575 0 110 3.15 1.575 1.575 0 010-3.15zm10.717 0a1.575 1.575 0 110 3.15 1.575 1.575 0 010-3.15zm10.717 0a1.575 1.575 0 110 3.15 1.575 1.575 0 010-3.15zm10.717 0a1.575 1.575 0 110 3.15 1.575 1.575 0 010-3.15zm10.717 0a1.575 1.575 0 110 3.15 1.575 1.575 0 010-3.15zm10.717 0a1.575 1.575 0 110 3.15 1.575 1.575 0 010-3.15zm10.717 0a1.575 1.575 0 110 3.15 1.575 1.575 0 010-3.15zm10.717 0a1.575 1.575 0 110 3.15 1.575 1.575 0 010-3.15zm10.717 0a1.575 1.575 0 110 3.15 1.575 1.575 0 010-3.15zm10.717 0a1.575 1.575 0 110 3.15 1.575 1.575 0 010-3.15zm10.717 0a1.575 1.575 0 110 3.15 1.575 1.575 0 010-3.15zm10.717 0a1.575 1.575 0 110 3.15 1.575 1.575 0 010-3.15zm10.717 0a1.575 1.575 0 110 3.15 1.575 1.575 0 010-3.15zm10.718 0a1.575 1.575 0 110 3.15 1.575 1.575 0 010-3.15zm10.717 0a1.575 1.575 0 110 3.15 1.575 1.575 0 010-3.15zm10.717 0a1.575 1.575 0 110 3.15 1.575 1.575 0 010-3.15zm10.717 0a1.575 1.575 0 110 3.15 1.575 1.575 0 010-3.15zm10.717 0a1.575 1.575 0 110 3.15 1.575 1.575 0 010-3.15zm10.717-10.717a1.575 1.575 0 110 3.15 1.575 1.575 0 010-3.15zm-417.966 0a1.575 1.575 0 110 3.15 1.575 1.575 0 010-3.15zm32.151 0a1.575 1.575 0 110 3.15 1.575 1.575 0 010-3.15zm21.434 0a1.575 1.575 0 110 3.15 1.575 1.575 0 010-3.15zm21.435 0a1.575 1.575 0 110 3.15 1.575 1.575 0 010-3.15zm21.434 0a1.575 1.575 0 110 3.15 1.575 1.575 0 010-3.15zm21.434 0a1.575 1.575 0 110 3.15 1.575 1.575 0 010-3.15zm21.434 0a1.575 1.575 0 110 3.15 1.575 1.575 0 010-3.15zm21.434 0a1.575 1.575 0 110 3.15 1.575 1.575 0 010-3.15zm21.434 0a1.575 1.575 0 110 3.15 1.575 1.575 0 010-3.15zm21.434 0a1.575 1.575 0 110 3.15 1.575 1.575 0 010-3.15zm21.435 0a1.575 1.575 0 110 3.15 1.575 1.575 0 010-3.15zm21.434 0a1.575 1.575 0 110 3.15 1.575 1.575 0 010-3.15zm21.434 0a1.575 1.575 0 110 3.15 1.575 1.575 0 010-3.15zm21.434 0a1.575 1.575 0 110 3.15 1.575 1.575 0 010-3.15zm21.434 0a1.575 1.575 0 110 3.15 1.575 1.575 0 010-3.15zm21.434 0a1.575 1.575 0 110 3.15 1.575 1.575 0 010-3.15zm21.434 0a1.575 1.575 0 110 3.15 1.575 1.575 0 010-3.15zm21.435 0a1.575 1.575 0 110 3.15 1.575 1.575 0 010-3.15zm21.434 0a1.575 1.575 0 110 3.15 1.575 1.575 0 010-3.15zm10.717 0a1.575 1.575 0 110 3.15 1.575 1.575 0 010-3.15zm-364.38 0a1.575 1.575 0 110 3.15 1.575 1.575 0 010-3.15zm171.473 0a1.575 1.575 0 110 3.15 1.575 1.575 0 010-3.15zm-107.171 0a1.575 1.575 0 110 3.15 1.575 1.575 0 010-3.15zm128.605 0a1.575 1.575 0 110 3.15 1.575 1.575 0 010-3.15zm-214.342 0a1.575 1.575 0 110 3.15 1.575 1.575 0 010-3.15zm235.776 0a1.575 1.575 0 110 3.15 1.575 1.575 0 010-3.15zm-128.605 0a1.575 1.575 0 110 3.15 1.575 1.575 0 010-3.15zm150.039 0a1.575 1.575 0 110 3.15 1.575 1.575 0 010-3.15zm-214.342 0a1.575 1.575 0 110 3.15 1.575 1.575 0 010-3.15zm235.776 0a1.575 1.575 0 110 3.15 1.575 1.575 0 010-3.15zm-150.039 0a1.575 1.575 0 110 3.15 1.575 1.575 0 010-3.15zm171.473 0a1.575 1.575 0 110 3.15 1.575 1.575 0 010-3.15zm-310.795 0a1.575 1.575 0 110 3.15 1.575 1.575 0 010-3.15zm332.23 0a1.575 1.575 0 110 3.15 1.575 1.575 0 010-3.15zm-171.474 0a1.575 1.575 0 110 3.15 1.575 1.575 0 010-3.15zm192.908 0a1.575 1.575 0 110 3.15 1.575 1.575 0 010-3.15zm-278.644 0a1.575 1.575 0 110 3.15 1.575 1.575 0 010-3.15zm300.078 0a1.575 1.575 0 110 3.15 1.575 1.575 0 010-3.15zm-192.908 0a1.575 1.575 0 110 3.15 1.575 1.575 0 010-3.15zm-192.907-10.717a1.575 1.575 0 110 3.15 1.575 1.575 0 010-3.15zm32.151 0a1.575 1.575 0 110 3.15 1.575 1.575 0 010-3.15zm171.473 0a1.575 1.575 0 110 3.15 1.575 1.575 0 010-3.15zm-160.756 0a1.575 1.575 0 110 3.15 1.575 1.575 0 010-3.15zm53.586 0a1.575 1.575 0 110 3.15 1.575 1.575 0 010-3.15zm-10.717 0a1.575 1.575 0 110 3.15 1.575 1.575 0 010-3.15zm139.322 0a1.575 1.575 0 110 3.15 1.575 1.575 0 010-3.15zm-96.454 0a1.575 1.575 0 110 3.15 1.575 1.575 0 010-3.15zm-117.888 0a1.575 1.575 0 110 3.15 1.575 1.575 0 010-3.15zm160.756 0a1.575 1.575 0 110 3.15 1.575 1.575 0 010-3.15zm75.02 0a1.575 1.575 0 110 3.15 1.575 1.575 0 010-3.15zm-32.151 0a1.575 1.575 0 110 3.15 1.575 1.575 0 010-3.15zm-96.454 0a1.575 1.575 0 110 3.15 1.575 1.575 0 010-3.15zm139.322 0a1.575 1.575 0 110 3.15 1.575 1.575 0 010-3.15zm10.717 0a1.575 1.575 0 110 3.15 1.575 1.575 0 010-3.15zm32.151 0a1.575 1.575 0 110 3.15 1.575 1.575 0 010-3.15zm-246.493 0a1.575 1.575 0 110 3.15 1.575 1.575 0 010-3.15zm289.361 0a1.575 1.575 0 110 3.15 1.575 1.575 0 010-3.15zm-53.585 0a1.575 1.575 0 110 3.15 1.575 1.575 0 010-3.15zm96.454 0a1.575 1.575 0 110 3.15 1.575 1.575 0 010-3.15zm-246.493 0a1.575 1.575 0 110 3.15 1.575 1.575 0 010-3.15zm-117.888 0a1.575 1.575 0 110 3.15 1.575 1.575 0 010-3.15zm289.361 0a1.575 1.575 0 110 3.15 1.575 1.575 0 010-3.15zm-203.624 0a1.575 1.575 0 110 3.15 1.575 1.575 0 010-3.15zm310.795 0a1.575 1.575 0 110 3.15 1.575 1.575 0 010-3.15zm-225.059 0a1.575 1.575 0 110 3.15 1.575 1.575 0 010-3.15zm139.322 0a1.575 1.575 0 110 3.15 1.575 1.575 0 010-3.15zm-53.585 0a1.575 1.575 0 110 3.15 1.575 1.575 0 010-3.15zm-117.888 0a1.575 1.575 0 110 3.15 1.575 1.575 0 010-3.15zm203.625 0a1.575 1.575 0 110 3.15 1.575 1.575 0 010-3.15zm-10.718 0a1.575 1.575 0 110 3.15 1.575 1.575 0 010-3.15zm-289.36 0a1.575 1.575 0 110 3.15 1.575 1.575 0 010-3.15zm10.717 0a1.575 1.575 0 110 3.15 1.575 1.575 0 010-3.15zm160.756 0a1.575 1.575 0 110 3.15 1.575 1.575 0 010-3.15zm139.322 0a1.575 1.575 0 110 3.15 1.575 1.575 0 010-3.15zm32.15 0a1.575 1.575 0 110 3.15 1.575 1.575 0 010-3.15zm-225.058 0a1.575 1.575 0 110 3.15 1.575 1.575 0 010-3.15zm139.322 0a1.575 1.575 0 110 3.15 1.575 1.575 0 010-3.15zm75.02 0a1.575 1.575 0 110 3.15 1.575 1.575 0 010-3.15zm-246.493 0a1.575 1.575 0 110 3.15 1.575 1.575 0 010-3.15zm257.21-10.717a1.575 1.575 0 110 3.15 1.575 1.575 0 010-3.15zm-75.02 0a1.575 1.575 0 110 3.15 1.575 1.575 0 010-3.15zm-171.473 0a1.575 1.575 0 110 3.15 1.575 1.575 0 010-3.15zm-139.322 0a1.575 1.575 0 110 3.15 1.575 1.575 0 010-3.15zm32.151 0a1.575 1.575 0 110 3.15 1.575 1.575 0 010-3.15zm171.474 0a1.575 1.575 0 110 3.15 1.575 1.575 0 010-3.15zm-160.757 0a1.575 1.575 0 110 3.15 1.575 1.575 0 010-3.15zm53.586 0a1.575 1.575 0 110 3.15 1.575 1.575 0 010-3.15zm-10.717 0a1.575 1.575 0 110 3.15 1.575 1.575 0 010-3.15zm139.322 0a1.575 1.575 0 110 3.15 1.575 1.575 0 010-3.15zm-96.454 0a1.575 1.575 0 110 3.15 1.575 1.575 0 010-3.15zm-117.888 0a1.575 1.575 0 110 3.15 1.575 1.575 0 010-3.15zm160.756 0a1.575 1.575 0 110 3.15 1.575 1.575 0 010-3.15zm75.02 0a1.575 1.575 0 110 3.15 1.575 1.575 0 010-3.15zm-32.151 0a1.575 1.575 0 110 3.15 1.575 1.575 0 010-3.15zm-96.454 0a1.575 1.575 0 110 3.15 1.575 1.575 0 010-3.15zm139.322 0a1.575 1.575 0 110 3.15 1.575 1.575 0 010-3.15zm10.717 0a1.575 1.575 0 110 3.15 1.575 1.575 0 010-3.15zm32.151 0a1.575 1.575 0 110 3.15 1.575 1.575 0 010-3.15zm-246.492 0a1.575 1.575 0 110 3.15 1.575 1.575 0 010-3.15zm289.36 0a1.575 1.575 0 110 3.15 1.575 1.575 0 010-3.15zm-53.585 0a1.575 1.575 0 110 3.15 1.575 1.575 0 010-3.15zm-182.19 0a1.575 1.575 0 110 3.15 1.575 1.575 0 010-3.15zm-117.888 0a1.575 1.575 0 110 3.15 1.575 1.575 0 010-3.15zm203.625 0a1.575 1.575 0 110 3.15 1.575 1.575 0 010-3.15zm139.321 0a1.575 1.575 0 110 3.15 1.575 1.575 0 010-3.15zm-53.585 0a1.575 1.575 0 110 3.15 1.575 1.575 0 010-3.15zm-117.888 0a1.575 1.575 0 110 3.15 1.575 1.575 0 010-3.15zm203.625 0a1.575 1.575 0 110 3.15 1.575 1.575 0 010-3.15zm-10.717 0a1.575 1.575 0 110 3.15 1.575 1.575 0 010-3.15zm-289.361 0a1.575 1.575 0 110 3.15 1.575 1.575 0 010-3.15zm10.717 0a1.575 1.575 0 110 3.15 1.575 1.575 0 010-3.15zm160.756 0a1.575 1.575 0 110 3.15 1.575 1.575 0 010-3.15zm139.322 0a1.575 1.575 0 110 3.15 1.575 1.575 0 010-3.15zm-396.532 0a1.575 1.575 0 110 3.15 1.575 1.575 0 010-3.15zm203.624 0a1.575 1.575 0 110 3.15 1.575 1.575 0 010-3.15zm139.322 0a1.575 1.575 0 110 3.15 1.575 1.575 0 010-3.15zm75.02 0a1.575 1.575 0 110 3.15 1.575 1.575 0 010-3.15zm-246.493 0a1.575 1.575 0 110 3.15 1.575 1.575 0 010-3.15zm-128.605 0a1.575 1.575 0 110 3.15 1.575 1.575 0 010-3.15zM1141.293 20a1.575 1.575 0 110 3.15 1.575 1.575 0 010-3.15zm214.34 0a1.575 1.575 0 110 3.15 1.575 1.575 0 010-3.15zm10.718 0a1.575 1.575 0 110 3.15 1.575 1.575 0 010-3.15zm-203.625 0a1.575 1.575 0 110 3.15 1.575 1.575 0 010-3.15zm214.342 0a1.575 1.575 0 110 3.15 1.575 1.575 0 010-3.15zm-192.908 0a1.575 1.575 0 110 3.15 1.575 1.575 0 010-3.15zm203.625 0a1.575 1.575 0 110 3.15 1.575 1.575 0 010-3.15zm-182.19 0a1.575 1.575 0 110 3.15 1.575 1.575 0 010-3.15zm192.907 0a1.575 1.575 0 110 3.15 1.575 1.575 0 010-3.15zm-171.473 0a1.575 1.575 0 110 3.15 1.575 1.575 0 010-3.15zm182.19 0a1.575 1.575 0 110 3.15 1.575 1.575 0 010-3.15zm-160.756 0a1.575 1.575 0 110 3.15 1.575 1.575 0 010-3.15zm171.473 0a1.575 1.575 0 110 3.15 1.575 1.575 0 010-3.15zm-150.039 0a1.575 1.575 0 110 3.15 1.575 1.575 0 010-3.15zm160.756 0a1.575 1.575 0 110 3.15 1.575 1.575 0 010-3.15zm-139.322 0a1.575 1.575 0 110 3.15 1.575 1.575 0 010-3.15zm150.04 0a1.575 1.575 0 110 3.15 1.575 1.575 0 010-3.15zm-128.606 0a1.575 1.575 0 110 3.15 1.575 1.575 0 010-3.15zm139.322 0a1.575 1.575 0 110 3.15 1.575 1.575 0 010-3.15zM1334.2 20a1.575 1.575 0 110 3.15 1.575 1.575 0 010-3.15zm128.605 0a1.575 1.575 0 110 3.15 1.575 1.575 0 010-3.15zm-310.795 0a1.575 1.575 0 110 3.15 1.575 1.575 0 010-3.15zm321.512 0a1.575 1.575 0 110 3.15 1.575 1.575 0 010-3.15zm-278.644 0a1.575 1.575 0 110 3.15 1.575 1.575 0 010-3.15zm289.361 0a1.575 1.575 0 110 3.15 1.575 1.575 0 010-3.15zm-246.492 0a1.575 1.575 0 110 3.15 1.575 1.575 0 010-3.15zm257.21 0a1.575 1.575 0 110 3.15 1.575 1.575 0 010-3.15zm-214.342 0a1.575 1.575 0 110 3.15 1.575 1.575 0 010-3.15zm225.059 0a1.575 1.575 0 110 3.15 1.575 1.575 0 010-3.15zm-182.19 0a1.575 1.575 0 110 3.15 1.575 1.575 0 010-3.15zm192.907 0a1.575 1.575 0 110 3.15 1.575 1.575 0 010-3.15zm-342.947 0a1.575 1.575 0 110 3.15 1.575 1.575 0 010-3.15zm353.664 0a1.575 1.575 0 110 3.15 1.575 1.575 0 010-3.15zm-267.927 0a1.575 1.575 0 110 3.15 1.575 1.575 0 010-3.15zm278.644 0a1.575 1.575 0 110 3.15 1.575 1.575 0 010-3.15zm-407.249 0a1.575 1.575 0 110 3.15 1.575 1.575 0 010-3.15zm417.966 0a1.575 1.575 0 110 3.15 1.575 1.575 0 010-3.15zm-246.493 0a1.575 1.575 0 110 3.15 1.575 1.575 0 010-3.15zm42.869 0a1.575 1.575 0 110 3.15 1.575 1.575 0 010-3.15zm-128.605 0a1.575 1.575 0 110 3.15 1.575 1.575 0 010-3.15z" opacity=".607"/><path fill="url(#b)" fill-rule="nonzero" d="M1513.955 152.746c-21.304 4.5-22.375-3.595-64.457-31.369-44.334-29.257-111.258-9.864-131.452 51.714-6.888 21.008-7.103 37.978-11.813 62.35-7.412 38.352-33.226 49.395-55.444 61.76-24.222 13.48-88.204 39.48-75.018 117.748 7.61 45.171 41.243 79.944 90.695 76.096 26.996-2.1 51.375-13.31 77.142-23.073 89.716-33.99 85.731-27.247 180.462-16.56.175-2.587 3.72.074 17.398-1.169 63.58-5.78 70.375-56.124 80.29-112.23 14.83-83.918 70.589-89.817 82.832-137.67 3.85-15.033-1.82-35.451-20.742-50.613-53.665-43.003-131.98-4.996-169.893 3.016z" opacity=".044"/><g fill-rule="nonzero"><path fill="url(#c)" d="M139.207 278.56C72.77 278.523 15.61 231.565 2.678 166.4-10.255 101.233 24.64 36.006 86.026 10.6c61.386-25.406 132.17-3.917 169.073 51.328 36.902 55.245 29.646 128.863-17.332 175.84a138.46 138.46 0 01-98.56 40.793zm0-278.001c-56.078 0-106.635 33.78-128.095 85.59-21.46 51.809-9.598 111.444 30.055 151.097 39.653 39.653 99.288 51.516 151.098 30.056 51.81-21.46 85.59-72.017 85.59-128.095C277.768 62.67 215.745.645 139.207.56z" transform="translate(1402 222)"/><path fill="url(#d)" d="M139.207 261.185c-49.336 0-93.813-29.719-112.693-75.299-18.88-45.58-8.444-98.045 26.441-132.93 34.886-34.886 87.35-45.322 132.93-26.442 45.58 18.88 75.3 63.358 75.3 112.693-.077 67.335-54.643 121.902-121.978 121.978zm0-243.251c-49.05 0-93.272 29.547-112.042 74.864-18.771 45.316-8.396 97.478 26.288 132.162 34.684 34.684 86.846 45.06 132.163 26.29 45.317-18.772 74.864-62.992 74.864-112.043-.076-66.946-54.327-121.198-121.273-121.273z" transform="translate(1402 222)"/><path fill="url(#d)" d="M139.207 243.81c-57.77 0-104.603-46.832-104.603-104.603 0-57.77 46.832-104.603 104.603-104.603 57.77 0 104.603 46.833 104.603 104.603-.066 57.744-46.86 104.538-104.603 104.603zm0-208.501c-57.382 0-103.898 46.517-103.898 103.898 0 57.381 46.516 103.898 103.898 103.898 57.381 0 103.898-46.516 103.898-103.898-.065-57.354-46.544-103.833-103.898-103.898z" transform="translate(1402 222)"/><path fill="url(#e)" d="M139.207 226.435c-35.28 0-67.087-21.252-80.588-53.847-13.502-32.595-6.039-70.113 18.908-95.06 24.947-24.947 62.465-32.41 95.06-18.909 32.595 13.501 53.847 45.308 53.847 80.588-.054 48.152-39.076 87.173-87.227 87.228zm0-173.751c-34.996 0-66.545 21.08-79.938 53.412-13.392 32.331-5.99 69.546 18.756 94.292 24.745 24.746 61.96 32.148 94.292 18.756 32.332-13.392 53.413-44.941 53.413-79.937-.054-47.763-38.76-86.469-86.523-86.523z" transform="translate(1402 222)"/><path fill="url(#f)" d="M139.207 209.06c-28.253 0-53.724-17.02-64.536-43.121-10.812-26.103-4.836-56.147 15.142-76.125s50.023-25.954 76.125-15.142c26.102 10.811 43.121 36.282 43.121 64.535-.043 38.56-31.292 69.809-69.852 69.853zm0-139.001c-27.968 0-53.182 16.847-63.885 42.686-10.703 25.839-4.787 55.58 14.99 75.357 19.775 19.776 49.517 25.692 75.356 14.99 25.84-10.703 42.687-35.917 42.687-63.885-.044-38.171-30.977-69.105-69.148-69.148z" transform="translate(1402 222)"/></g><g fill-rule="nonzero" opacity=".316"><path fill="url(#g)" d="M199.08 398.372c-95.01-.056-176.754-67.21-195.25-160.403-18.496-93.193 31.408-186.475 119.197-222.81 87.788-36.333 189.018-5.601 241.792 73.405s42.397 184.287-24.786 251.47a198.012 198.012 0 01-140.952 58.338zm0-397.573c-80.197 0-152.498 48.31-183.188 122.403-30.69 74.092-13.727 159.377 42.981 216.086 56.709 56.708 141.993 73.672 216.086 42.982 74.093-30.69 122.403-102.991 122.403-183.189C397.24 89.624 308.537.923 199.081.8z" transform="scale(-1 1) rotate(-75 -21.226 298.268)"/><path fill="url(#d)" d="M199.08 373.523c-70.555 0-134.162-42.502-161.163-107.686-27-65.184-12.075-140.215 37.815-190.105 49.89-49.89 124.92-64.814 190.104-37.814 65.185 27 107.686 90.608 107.686 161.163-.11 96.296-78.145 174.332-174.441 174.442zm0-347.876c-70.147 0-133.387 42.256-160.232 107.064-26.844 64.808-12.006 139.405 37.596 189.006 49.602 49.602 124.199 64.44 189.007 37.596s107.063-90.084 107.063-160.232c-.108-95.74-77.693-173.326-173.433-173.434z" transform="scale(-1 1) rotate(-75 -21.226 298.268)"/><path fill="url(#d)" d="M199.08 348.674c-82.618 0-149.593-66.975-149.593-149.593S116.463 49.488 199.081 49.488s149.593 66.975 149.593 149.593c-.094 82.58-67.014 149.5-149.593 149.593zm0-298.179c-82.061 0-148.585 66.525-148.585 148.586 0 82.062 66.524 148.586 148.586 148.586 82.061 0 148.585-66.524 148.585-148.586-.092-82.023-66.562-148.493-148.585-148.586z" transform="scale(-1 1) rotate(-75 -21.226 298.268)"/><path fill="url(#h)" d="M199.08 323.826c-50.454 0-95.94-30.393-115.25-77.007-19.308-46.614-8.635-100.269 27.042-135.946 35.677-35.677 89.332-46.35 135.946-27.041 46.614 19.308 77.007 64.794 77.007 115.25-.078 68.861-55.882 124.666-124.744 124.744zm0-248.482c-50.047 0-95.166 30.147-114.318 76.384-19.153 46.238-8.566 99.46 26.822 134.848 35.389 35.39 88.61 45.976 134.848 26.824 46.238-19.153 76.386-64.272 76.386-114.319-.078-68.306-55.431-123.66-123.737-123.737z" transform="scale(-1 1) rotate(-75 -21.226 298.268)"/><path fill="url(#i)" d="M199.08 298.978c-40.404 0-76.83-24.339-92.292-61.668-15.462-37.329-6.916-80.296 21.654-108.867 28.57-28.57 71.538-37.117 108.867-21.655 37.329 15.463 61.668 51.889 61.668 92.293-.062 55.146-44.75 99.834-99.896 99.897zm0-198.786c-39.996 0-76.055 24.093-91.361 61.046-15.307 36.952-6.846 79.486 21.436 107.768 28.282 28.282 70.816 36.743 107.768 21.437 36.953-15.306 61.046-51.365 61.046-91.362-.061-54.59-44.3-98.827-98.888-98.89z" transform="scale(-1 1) rotate(-75 -21.226 298.268)"/></g><path fill="url(#j)" fill-rule="nonzero" d="M367.592-111.27c-10.388-1.758-20.823-3.23-31.25-4.747-72.045-10.473-71.852-71.2-114.482-68.198-28.258 1.99-50.375 47.398-70.463 21.7-44.6-57.063-94.983-21.689-109.104 25.006-7.202 23.812-3.61 38.654-4.663 71.874C36.017-14.795-24.22-28.549-72.4 1.03c-45.673 28.04-46.762 77.853-13.471 103.146 52.002 39.51 109.856-10.562 154.85 29.343 80.436 71.342 90.953 24.13 153.852-4.974 54.633-25.276 91.282 6.134 141.836 4.883 41.074 1.332 72.493-13.41 96.285-44.255 60.97-79.042 3.21-184.09-93.36-200.442z" opacity=".027"/><path fill="url(#k)" fill-rule="nonzero" d="M302.99 260l51.962 30v60l-51.962 30-51.961-30v-60l51.961-30zm0 6.159l-46.629 26.92v53.841l46.63 26.92 46.627-26.92v-53.841l-46.628-26.92z" opacity=".263"/><path fill="url(#l)" fill-rule="nonzero" d="M1195.67 300l34.64 20v40l-34.64 20-34.641-20v-40l34.64-20zm0 4.106l-31.086 17.946v35.895l31.086 17.946 31.085-17.946v-35.895l-31.085-17.946z" opacity=".263"/><path fill="url(#m)" fill-rule="nonzero" d="M1007.01-20l25.98 15v30l-25.98 15-25.981-15V-5l25.98-15zm0 3.08L983.695-3.46v26.92l23.315 13.46 23.314-13.46V-3.46l-23.314-13.46z" opacity=".263"/><path fill="url(#n)" fill-rule="nonzero" opacity=".165" d="M596.617 20l15.589 9v18l-15.589 9-15.588-9V29z"/><path fill="url(#o)" fill-rule="nonzero" opacity=".114" transform="rotate(-24 1593.938 208)" d="M1593.938 170l32.909 19v38l-32.909 19-32.909-19v-38z"/><path fill="url(#o)" fill-rule="nonzero" opacity=".114" transform="rotate(-24 5.909 288)" d="M5.909 250l32.909 19v38L5.909 326-27 307v-38z"/><path fill="url(#p)" fill-rule="nonzero" opacity=".461" transform="rotate(-45 337.011 58.412)" d="M233.122 55.889L440.9 58.935v2l-207.778-3.046z"/><path fill="url(#q)" fill-rule="nonzero" opacity=".461" transform="rotate(-45 1468.151 169.256)" d="M1382.66 168.756h170.982v1H1382.66z"/><path fill="url(#r)" fill-rule="nonzero" opacity=".461" transform="rotate(-45 869.002 80.276)" d="M751.402 79.526h235.201v1.5H751.402z"/><path fill="url(#s)" fill-rule="nonzero" opacity=".461" transform="rotate(-45 423.946 196.157)" d="M338.9 195.157h170.092v2H338.9z"/><circle cx="1318.251" cy="165.251" r="43.251" fill="url(#t)" fill-rule="nonzero" opacity=".062" transform="rotate(-76.717 1318.251 165.251)"/><circle cx="522.32" cy="274.66" r="13.079" fill="url(#t)" fill-rule="nonzero" opacity=".142" transform="rotate(-76.717 522.32 274.66)"/><circle cx="1084.079" cy="26.079" r="13.079" fill="url(#t)" fill-rule="nonzero" opacity=".142" transform="rotate(-76.717 1084.079 26.079)"/><circle cx="355.736" cy="126.736" r="26.736" fill="url(#t)" fill-rule="nonzero" opacity=".062"/><g transform="translate(861 67)"><use fill="#000" filter="url(#u)" xlink:href="#v"/><circle cx="108.266" cy="108.266" r="107.766" fill="url(#w)" stroke="url(#t)" stroke-linejoin="square"/><path fill="#326582" d="M149.248 116.628c.15 27.686 1.405 23.35-21.412 36.086-5.712 3.188-11.526 6.192-17.293 9.28-4.205 2.252-6.33.397-6.597-3.764-.307-4.789-.053-9.61-.153-14.414-.044-1.994.744-3.301 2.492-4.163 1.171-.575 2.242-1.393 3.455-1.847 12.54-4.68 18.402-13.269 15.857-26.82-.899-4.787.936-7.702 5.55-9.485 3.43-1.324 6.49-3.57 9.792-5.254 5.897-3.008 8.072-1.814 8.27 4.651.161 5.239.033 10.486.039 15.73"/><path fill="#3E8EB9" d="M100.785 63.123c1.575.396 3.194.488 4.494 1.18 11.363 6.045 22.73 12.09 33.957 18.379 3.785 2.12 3.265 4.928-.252 6.991-4.704 2.76-9.653 5.111-14.298 7.962-2.525 1.549-4.052.045-5.867-1.001-20.049-11.561-15.805-11.807-36.186.163-2.87 1.686-4.962 1.789-7.685.136-4.286-2.605-8.82-4.8-13.102-7.411-2.841-1.733-4.431-4.354-.623-6.503 11.582-6.535 22.993-13.411 35.151-18.873 1.352-.607 2.938-.695 4.41-1.023"/><path fill="#223946" d="M97.106 150.023c.462 13.804-.018 16.17-12.89 8.54-7.69-4.56-15.609-8.753-23.55-12.868-5.85-3.03-8.763-7.48-8.663-14.138.153-10.283-.034-20.572.066-30.856.059-6.239 2.128-7.419 7.63-4.633.584.297 1.111.756 1.726.94 12.24 3.67 17.21 11.51 14.728 24.284-.905 4.657 1.619 8.414 5.86 10.784 2.095 1.17 4.053 2.658 6.257 3.54 7.15 2.866 11.18 7.354 8.836 14.407"/><path fill="#3E8EB9" d="M99.49 118.078c6.45 1.587 11.176 4.779 15.898 7.786 2.237 1.424-.216 2.423-1.287 3.191-10.848 7.77-16.072 7.775-26.856.06-1.129-.806-3.47-1.844-1.384-3.243 4.466-3 9.34-5.39 13.629-7.794"/><path fill="#336582" d="M80.862 112.143c-.03-8.069 6.035-14.986 14.482-16.825 2.34-.51 2.432.71 2.718 2.37 1.98 11.54-3.21 19.764-14.314 22.899-2.121.598-2.847.074-2.879-1.916-.034-2.176-.007-4.352-.007-6.528"/><path fill="#233A47" d="M103.29 104.089c.002-9.965.002-9.965 8.479-5.445 8.246 4.396 11.272 11.56 8.768 20.392-.581 2.052-1.435 2.442-3.238 1.417-3.985-2.261-8.18-4.204-11.968-6.75-3.883-2.613-1.117-6.977-2.042-9.614"/><path fill="#6DA1C4" d="M173.555 88.451h-.013v-.013c-1.66-1.264-2.793-3.122-4.743-4.044-3.28-.856-7.337-.711-7.284-5.757-.211-1.58.75-2.279 2.068-2.687.5.013.988.04 1.475.092.211.013.422.04.633.066-.33.29-.778.553-1.357.751 4.004.369 6.982 2.885 10.209 4.86v.014c-.382 2.226.922 4.703-.988 6.718"/><path fill="#5D99BE" d="M153.844 85.674c-1.174-2.708-4.545-2.39-6.17-4.475 5.175-5.164 7.69-4.774 12.121 1.885-1.569 1.814-3.288 3.287-5.951 2.59"/><path fill="#5295BC" d="M174.61 81.76c-.027-.014-.04-.027-.067-.027v-.013c.014 0 .04 0 .053.013 0 .013.013.013.013.026m11.764.461c-.237 1.832-1.238 1.647-2.45.923-3.425 1.765-6.205-.857-9.287-1.41.382-.975 1.449-1.963-.066-2.898-.013-.013-.027-.013-.04-.013l-.013-.013c0-.014 0-.027-.013-.04a1.167 1.167 0 00-.277-.421c.988-1.713 2.238-2.74 4.308-1.687 2.45 2.082 7.152.975 7.838 5.56"/><g transform="translate(158.702 52.307)"><mask id="y" fill="#fff"><use xlink:href="#x"/></mask><path fill="#5997BE" d="M7.932 6.955C5.732 5.38 2.423 5.777.879 3.019 6.807-1.394 9-1.053 11.83 4.706c-.145 2.747-1.736 2.99-3.898 2.249" mask="url(#y)"/></g><path fill="#5998BF" d="M179.562 69.917c-1.357 1.7-2.74 3.36-5.256 3.148-.119-.04-.224-.079-.343-.118-.066-.04-.131-.053-.197-.08.184-.184.395-.381.619-.579-2.556-1.423-5.124-2.858-7.68-4.281.369.593.606 1.133.632 1.607a6.332 6.332 0 01-.672-.659 4.72 4.72 0 01-.342-.382c.145-.988.461-1.712.922-2.252.79-.949 1.976-1.344 3.267-1.581h.013c.461-.092.949-.158 1.423-.224 3.438.553 6.297 1.884 7.614 5.4"/><path fill="#4791BB" d="M160.076 71.276c-2.399-.353-4.4-1.465-6.244-3.186 3.7-5.084 7.525-3.121 11.38-.42-.33 3.166-2.842 3.23-5.136 3.606"/><path fill="#366684" d="M183.926 83.142c.974.113 1.858-.011 2.442-.924 2.584 5.766 2.196 6.552-4.646 9.195-1.591-3.397-.532-6.045 2.204-8.271"/><path fill="#3B6A86" d="M153.844 85.674c1.983-.862 3.967-1.724 5.951-2.589 1.228 4.98-.85 7.617-5.81 8.38-.79-2.033-.651-3.907-.141-5.791"/><path fill="#326582" d="M166.634 59.262c1.517-.374 3.011-.788 3.898-2.248 2.74 1.59 1.07 4.123 1.34 6.24-1.708 1.935-3.342 4.052-6.424 2.595.413-2.192-1.225-4.753 1.186-6.587m11.9 17.4c-1.33.724-2.647 1.448-3.964 2.173-.014-.013-.027-.013-.04-.013l-.013-.014c0-.013 0-.026-.013-.04-1.95-1.883-1.713-3.846-.54-5.822-.066-.04-.132-.052-.198-.079.184-.184.395-.382.62-.58l5.176-2.37c.422 2.358 1.423 4.808-1.027 6.744"/><path fill="#3B6985" d="M168.796 84.393c4.832-2.445 4.741.864 4.752 4.054-1.225 1.63-2.898 2.49-5.361 2.953-1.067-2.465-1.148-4.754.61-7.007"/><path fill="#396885" d="M165.059 76.042c.21.013.421.04.632.066-.33.29-.777.553-1.357.751-1.212.158-2.24.62-2.819 1.778-3.28-1.37-.988-4.044-1.423-6.086.514-.474 1.028-1.027 1.542-1.528.83-.79 1.699-1.41 2.687-1.172.487.118 1.028.461 1.594 1.093.053.053.105.119.158.185a3.912 3.912 0 01-.5.131c-.593 1.502.342 3.333-.514 4.782"/><path fill="#B7CAD6" d="M171.948 64.516c-1.212 1.963-3.557 2.226-5.243 3.49.37.593.606 1.134.633 1.608a6.331 6.331 0 01-.672-.659c-.066.725-.237 1.423-.751 1.99.053.052.105.118.158.184a3.912 3.912 0 01-.5.131c-.817-.79-1.476-.948-2.082-.79h-.013a2.85 2.85 0 00-.593.25s0 .014-.013.014c-.935.553-1.739 1.673-2.78 1.817a6.89 6.89 0 01-.013-1.277c1.713-1.2 3.425-2.398 5.138-3.61l.237-1.818c2.595.264 4.268-1.765 6.415-2.595.092.422.119.843.08 1.265"/><path fill="#F7F9FB" d="M165.69 76.108c-.328.29-.776.553-1.356.75.33-.25.58-.526.725-.816.21.013.421.04.632.066m.382-4.98a3.912 3.912 0 01-.5.133 2.7 2.7 0 00.342-.317c.053.053.105.119.158.185m1.265-1.515a6.331 6.331 0 01-.672-.659c.026-.316.026-.632.04-.948.368.593.605 1.133.632 1.607m7.047 2.674c-.158.224-.29.435-.421.658-.066-.039-.132-.052-.198-.079.185-.184.395-.382.62-.58m.184 6.548c-.013-.013-.028-.013-.04-.013l-.013-.013c0-.013 0-.026-.013-.04.026.027.038.04.066.066m.066 2.898c0 .013-.014.026-.014.04 0 0-.013 0-.013-.014-.026-.013-.04-.026-.066-.026v-.013c.014 0 .04 0 .053.013h.04z"/></g><g filter="url(#z)" transform="translate(1114 160)"><path fill="#316481" d="M80.483 29.087c-1.252.25-2.543.439-3.827.486-5.65.18-7.67-2.56-5.83-7.952 1.033-3.052 3.733-1.385 5.893-2.01 1.205.18 2.637.257 3.983.625 2.246.618 3.475 2.207 3.46 4.547-.016 2.403-1.362 3.835-3.679 4.304M74.371 6.752c1.683.125 3.389.039 5.063.211 2.364.235 3.992 1.51 3.937 3.991-.055 2.505-1.87 3.57-4.14 3.859-1.025.133-2.082.023-3.123.023-5.196.086-5.43-.227-5.478-4.492-.023-2.747 1.104-3.796 3.741-3.592m16.24 15.503c-.9-2.66-3.108-4.015-5.471-5.51 4.234-1.87 5.58-5.055 4.57-9.273-.822-3.42-4.015-5.713-8.64-5.932-4.672-.22-9.352-.141-14.032-.212-1.925-.031-3.295.43-3.287 2.77.04 9.345.016 18.69.016 28.034 0 1.667.657 2.888 2.434 2.856 5.83-.101 11.715.689 17.483-.579 5.885-1.291 8.797-6.605 6.926-12.154"/><path fill="#316482" d="M203.69 15.744c-2.654.908-5.502 1.096-8.039.415-3.552-.955-1.674-4.304-1.995-6.629-.266-1.94.9-2.81 2.802-2.762.908.023 1.816 0 2.715 0 .009-.032.009-.063.009-.102 1.283.11 2.582.156 3.85.344 2.45.36 3.6 2.121 3.71 4.305.11 2.027-.9 3.701-3.053 4.43m4.18 3.192c4.507-2.942 5.978-5.353 5.509-9.242-.43-3.655-2.332-6.52-5.948-7.388-6.582-1.573-13.28-1.51-19.948-.282-.548 1.518-.267 3.091-.29 4.64-.157 8.97.258 17.938-.22 26.9 1.222 2.394 3.358 1.588 5.103 1.173 1.73-.407 1.527-2.168 1.527-3.6.007-2.34.007-4.68.023-7.012.008-1.26.407-2.23 1.722-2.724 4.961-1.83 10.26 1.425 10.815 6.707.165 1.55.086 3.123.298 4.665.266 1.988 1.737 2.371 3.467 2.261 1.376-.086 2.778-.352 2.715-2.073-.187-5.134 1.096-10.77-4.774-14.025"/><path fill="#326482" d="M137.361.797c4.74-.002 9.16.897 11.825 5.318.778 1.291 2.483 3.264.627 4.443-1.743 1.109-4.415 1.398-5.836-.986-2.136-3.59-5.382-3.719-8.864-3.23-1.905.267-3.524 1.178-3.79 3.324-.278 2.27 1.254 3.291 3.131 3.821 2.871.81 5.79 1.45 8.662 2.248 6.062 1.687 8.775 4.932 8.467 10.01-.306 5.04-3.817 8.552-9.653 9.572-4.319.755-8.545.478-12.577-1.387-2.071-.957-3.808-2.372-4.638-4.517-.54-1.39-2.351-3.165-.108-4.379 2.061-1.115 4.255-.91 5.876 1.274 2.76 3.716 5.828 4.825 10.05 3.72 2.11-.552 3.95-1.355 4.032-4.015.077-2.487-1.583-3.432-3.517-4.022-2.604-.795-5.271-1.378-7.897-2.103-6.58-1.816-9.292-4.946-8.763-10.062.536-5.191 4.719-8.622 11.02-9.024.648-.041 1.302-.005 1.953-.005"/><path fill="#316482" d="M28.766 1.828c-4.05 3.86-7.348 7.14-10.805 10.243-2.047 1.838-2.197 3.472-.554 5.685 3.562 4.795 6.91 9.749 10.423 14.582 1.436 1.978.988 2.618-1.372 2.738-3.102.158-5.524-.57-7.264-3.427-1.887-3.1-4.081-6.019-6.235-8.948-.785-1.065-1.294-2.957-3.118-2.344-1.673.564-2.752 2.044-2.865 3.857-.154 2.46-.197 4.942-.06 7.402.145 2.605-1.086 3.413-3.485 3.454-2.558.042-3.438-1.111-3.42-3.552.064-8.97.084-17.94-.01-26.91-.028-2.674 1.268-3.286 3.608-3.306C6.18 1.28 7.08 2.39 6.914 4.865c-.148 2.2-.05 4.418-.015 6.627.01.601-.27 1.38.463 1.736.894.435 1.43-.278 1.964-.82 2.28-2.318 4.548-4.647 6.82-6.973 4.315-4.412 4.955-4.625 12.62-3.607m66.48 16.085c0-4.422.074-8.847-.029-13.267-.054-2.335.895-3.331 3.206-3.317 6.383.038 12.765.014 19.147.008 1.816-.002 2.938.562 2.933 2.697-.005 2.185-.937 3.052-3.057 3.025-4.037-.048-8.077.067-12.112-.037-2.473-.063-3.134 1.121-3.072 3.356.062 2.184-.121 4.321 3.02 4.287 2.995-.032 5.992.005 8.988-.004 2.016-.007 4.045-.166 3.963 2.848-.08 2.998-2.198 2.715-4.146 2.734-2.865.027-5.738.135-8.594-.025-3.106-.175-3.344 1.647-3.21 3.981.136 2.359-.767 5.265 3.276 5.203 3.907-.06 7.815-.008 11.722-.008 1.824 0 3.363.173 3.363 2.662 0 2.542-1.4 3.012-3.51 2.996-5.99-.044-11.983-.076-17.973.013-2.776.041-4.057-.953-3.955-3.885.155-4.418.04-8.844.04-13.267m-36.713-2.64c0 3.247.088 6.497-.02 9.741-.17 5.108-2.858 8.557-7.828 9.83-3.69.945-7.47.952-11.162-.104-5.099-1.456-7.59-4.577-7.685-9.896-.12-6.754.024-13.512-.073-20.266-.033-2.355.912-3.275 3.215-3.275 2.243 0 3.85.475 3.84 3.156-.026 6.235-.02 12.472.003 18.707.019 4.957 1.816 6.973 6.193 7.028 4.393.057 6.596-2.276 6.636-7.188.05-5.976.09-11.954-.017-17.927-.047-2.584.764-3.793 3.546-3.796 2.849-.004 3.552 1.313 3.445 3.858-.141 3.372-.034 6.754-.034 10.132h-.059z"/><path fill="#316481" d="M170.366 17.215c-.65.016-1.3.008-1.949.008-4.735.055-7.286-4.469-5.016-8.843.485-.932 1.236-1.268 2.214-1.268 1.558 0 3.123-.024 4.68.023 3.24.102 5.62 1.284 5.596 4.993-.023 3.593-2.176 5.017-5.525 5.087m2.426-15.683c-4.414-.25-8.844-.055-13.265-.235-2.802-.11-3.608 1.135-3.514 3.741.14 4.289.039 8.577.039 12.866V30.77c0 .125.008.258 0 .384-.235 2.441.383 3.928 3.326 3.944 2.974.016 3.968-1.284 3.765-4.03-.095-1.292.101-2.614-.04-3.898-.368-3.302.799-4.915 4.345-4.5 1.666.196 3.38.094 5.07.008 6.378-.337 10.354-4.257 10.44-10.237.086-6.284-3.756-10.55-10.166-10.91"/><path fill="#326482" d="M234.696 22.177c-2.081 1.002-4.476.932-6.425.212-1.925-.72-.666-2.63-.227-4.054.979-3.154 1.925-6.316 3.185-10.464 1.527 4.821 2.763 8.687 3.96 12.569.196.634.141 1.432-.493 1.737m10.77 8.586c-3.03-8.672-6.27-17.265-9.275-25.944-.853-2.457-2.144-3.764-4.774-3.451-2.59-.274-4.03.775-4.899 3.326-3.021 8.953-6.292 17.82-9.415 26.742-1.073 3.067-.297 3.913 2.982 3.607 2.121-.195 3.162-1.33 3.686-3.357.376-1.424.65-3.287 2.552-3.553 3.35-.485 6.77-.665 10.064.07 2.277.51 2.05 3.045 2.825 4.75 1.197 2.638 3.663 2.435 5.721 1.91 2.824-.712.994-2.778.532-4.1"/><g transform="translate(243.391 .49)"><mask id="B" fill="#fff"><use xlink:href="#A"/></mask><path fill="#326482" d="M14.994 15.449c2.164-4.26 4.042-7.947 5.912-11.638.593-1.17 1.18-2.398 2.594-2.702 1.648-.354 3.688-.937 4.86.264 1.156 1.183-.518 2.576-1.134 3.77-1.424 2.765-2.833 5.562-4.55 8.148-3.35 5.043-5.079 10.405-4.377 16.512.28 2.435.16 4.722-3.398 4.794-3.513.072-3.819-2.007-3.512-4.572.712-5.956-.933-11.212-4.243-16.144-1.802-2.682-3.338-5.58-4.658-8.53-.578-1.29-3.162-3.042-1-4.104 2.08-1.022 5.26-1.32 6.889 1.605 2.201 3.955 4.22 8.012 6.617 12.597" mask="url(#B)"/></g><path fill="#125778" d="M187.48 2.026c.026 9.663.055 19.326.078 28.989.001.891.132 1.822-.588 2.551-.063-10.079-.135-20.158-.159-30.237-.002-.434.435-.87.668-1.303"/></g><g transform="translate(530 67)"><use fill="#000" filter="url(#C)" xlink:href="#D"/><circle cx="108.266" cy="108.266" r="107.766" fill="url(#w)" stroke="url(#t)" stroke-linejoin="square"/><g fill-rule="nonzero" stroke="#FFF"><path fill="#326CE5" d="M107.018 47.136a8.452 8.452 0 00-3.214.812L59.939 68.882A8.325 8.325 0 0055.4 74.52l-10.822 47.024a8.245 8.245 0 001.14 6.37c.147.229.306.45.476.662l30.362 37.705a8.42 8.42 0 006.558 3.126l48.69-.01a8.418 8.418 0 006.557-3.122l30.35-37.71a8.25 8.25 0 001.622-7.033l-10.839-47.023a8.325 8.325 0 00-4.538-5.637l-43.87-20.923a8.456 8.456 0 00-4.068-.812z"/><path fill="#FFF" stroke-width=".25" d="M107.648 63.092c-1.447 0-2.62 1.306-2.62 2.916 0 .025.005.049.005.073-.002.22-.012.483-.005.673.034.93.236 1.64.358 2.497.22 1.832.405 3.35.291 4.762-.11.532-.502 1.019-.85 1.357l-.062 1.11c-1.572.131-3.155.37-4.736.73a33.682 33.682 0 00-17.117 9.8c-.29-.199-.796-.563-.946-.674-.468.063-.94.208-1.556-.151-1.173-.791-2.24-1.883-3.532-3.198-.592-.629-1.021-1.228-1.725-1.834-.16-.138-.403-.324-.582-.465a3.112 3.112 0 00-1.825-.69c-.805-.028-1.58.288-2.087.925-.902 1.134-.614 2.866.643 3.87l.04.029c.172.14.384.32.542.437.747.552 1.429.835 2.172 1.273 1.567.97 2.866 1.774 3.896 2.743.403.43.473 1.187.526 1.515l.84.751c-4.495 6.779-6.575 15.151-5.346 23.682l-1.097.32c-.289.374-.698.963-1.125 1.139-1.348.425-2.865.581-4.696.774-.86.071-1.602.028-2.514.202-.2.038-.48.11-.7.162l-.022.006-.039.011c-1.544.374-2.536 1.796-2.217 3.197.32 1.402 1.828 2.254 3.381 1.919.012-.003.028-.003.04-.006.017-.004.033-.013.05-.017.217-.048.488-.1.677-.151.897-.24 1.546-.594 2.351-.903 1.734-.623 3.17-1.144 4.568-1.347.584-.045 1.2.362 1.506.533l1.142-.196c2.627 8.164 8.134 14.762 15.108 18.903l-.476 1.144c.171.444.36 1.046.233 1.484-.509 1.322-1.38 2.716-2.372 4.271-.48.718-.971 1.276-1.405 2.098-.103.197-.235.499-.335.707-.674 1.443-.18 3.106 1.114 3.73 1.301.628 2.916-.035 3.616-1.481 0-.002.004-.004.005-.006v-.005c.1-.205.24-.475.325-.668.371-.852.494-1.582.756-2.406.693-1.745 1.073-3.575 2.028-4.716.26-.312.687-.433 1.129-.551l.593-1.077a33.783 33.783 0 0019.681 1.419 33.94 33.94 0 004.495-1.357c.167.296.477.866.56 1.01.449.146.938.221 1.338.813.713 1.222 1.202 2.668 1.796 4.414.261.824.39 1.554.762 2.406.084.195.225.468.324.673.698 1.452 2.319 2.116 3.622 1.487 1.293-.624 1.788-2.287 1.114-3.73-.1-.208-.238-.51-.342-.707-.433-.822-.924-1.374-1.405-2.092-.991-1.555-1.814-2.847-2.323-4.168-.212-.681.036-1.105.202-1.548-.1-.114-.312-.757-.437-1.06 7.247-4.288 12.592-11.132 15.103-19.038.339.054.928.158 1.12.197.393-.26.755-.6 1.466-.544 1.398.202 2.834.723 4.567 1.346.806.31 1.455.668 2.351.909.19.05.461.098.678.145.017.005.033.013.05.017.012.003.028.003.04.006 1.553.335 3.061-.517 3.38-1.918.32-1.402-.672-2.824-2.216-3.198-.225-.05-.544-.138-.762-.18-.911-.172-1.653-.13-2.513-.201-1.831-.192-3.348-.349-4.696-.774-.55-.214-.941-.87-1.131-1.139l-1.058-.308a33.97 33.97 0 00-.549-12.256 34.018 34.018 0 00-4.909-11.37c.272-.247.784-.702.93-.836.042-.47.005-.965.492-1.486 1.03-.97 2.33-1.773 3.896-2.743.744-.439 1.431-.721 2.177-1.273.17-.125.4-.323.577-.466 1.257-1.004 1.546-2.737.644-3.87-.902-1.134-2.65-1.24-3.907-.236-.18.142-.422.327-.583.466-.703.606-1.137 1.205-1.73 1.834-1.291 1.315-2.359 2.412-3.531 3.203-.508.296-1.252.194-1.59.174l-.996.712c-5.682-5.97-13.418-9.787-21.747-10.528-.023-.35-.054-.982-.062-1.173-.34-.327-.753-.606-.856-1.312-.114-1.412.076-2.93.297-4.762.121-.856.323-1.567.358-2.497.008-.21-.005-.517-.006-.746 0-1.61-1.173-2.916-2.62-2.916h0zm-3.28 20.36l-.779 13.771-.056.028a2.312 2.312 0 01-3.666 1.773l-.022.011-11.268-8.004a26.97 26.97 0 0112.997-7.096c.933-.212 1.865-.37 2.793-.482zm6.565 0a27.191 27.191 0 0115.696 7.584l-11.195 7.954-.04-.017a2.308 2.308 0 01-3.168-.426 2.302 2.302 0 01-.503-1.34l-.012-.006-.778-13.748zM84.49 96.175l10.289 9.222-.012.056a2.315 2.315 0 01-.906 3.977l-.012.045-13.187 3.814a27.081 27.081 0 013.828-17.114zm46.242.006a27.407 27.407 0 013.375 8.262c.681 2.97.852 5.936.571 8.801l-13.255-3.825-.01-.056a2.316 2.316 0 01-.908-3.977l-.005-.028 10.232-9.177h0zm-25.195 9.928h4.215l2.62 3.282-.94 4.094-3.784 1.823-3.796-1.828-.94-4.095 2.625-3.276zm13.513 11.23c.179-.01.357.007.532.039l.022-.028 13.641 2.311a27.061 27.061 0 01-10.92 13.748l-5.296-12.817.017-.022a2.319 2.319 0 012.004-3.231h0zm-22.911.056a2.311 2.311 0 012.088 3.225l.039.05-5.24 12.689a27.172 27.172 0 01-10.887-13.653l13.524-2.3.022.028c.152-.028.305-.041.454-.04h0zm11.425 5.559c.362-.014.73.06 1.08.23.458.22.813.57 1.035.987h.05l6.668 12.07c-.866.291-1.755.54-2.665.747a27.036 27.036 0 01-14.783-.763l6.65-12.049h.011a2.312 2.312 0 011.954-1.222z"/></g></g><path fill="#FF8903" fill-rule="nonzero" d="M804 147v24h24v8h-24v24h-8v-24h-24v-8h24v-24h8z"/><g filter="url(#E)" transform="translate(215 154)"><path fill="#F5F5F9" d="M25.862 39.897c.027.055-.011.14-.032.308-2.768 0-5.543-.01-8.318.012-.604.004-.727-.456-.958-.811-2.127-3.28-4.258-6.554-6.938-9.428-.487-.521-.863-1.144-1.293-1.715-.628.578-.465.936-.467 1.242-.014 3.198-.036 6.394.009 9.59.011.845-.152 1.176-1.09 1.135a70.134 70.134 0 00-5.654-.002c-.88.032-1.128-.206-1.121-1.103.039-6.732.02-13.465.02-20.199 0-5.604.014-11.208-.015-16.812C0 1.432.17 1.108.87 1.006c2.007-.29 4.014-.61 6.012-.96.802-.139.987.115.985.915-.036 6.732-.02 13.464-.02 20.196v1.4c1.55-1.703 2.92-3.169 4.245-4.675a189.285 189.285 0 003.796-4.474c.286-.347.557-.516 1.026-.514 2.827.025 5.654.011 8.737.011-2.743 3.142-5.343 6.098-8.089 8.923-.786.809-1.542 1.65-2.374 2.412-.507.465-.5.693.005 1.208 4.02 4.095 7.466 8.632 10.263 13.65.145.26.281.528.406.8m26.956-1.536c0 .391.213.851-.505 1.019-4.825 1.114-9.686 1.92-14.627 1.08-4.838-.824-7.475-3.748-8.175-8.591-.453-3.147-.24-6.307-.28-9.46-.04-2.897.008-5.795-.023-8.692-.007-.62.129-.842.795-.829 2.075.046 4.152.057 6.224-.004.76-.02.836.272.834.908-.025 4.476-.014 8.954-.014 13.433 0 1.318.093 2.632.429 3.907.493 1.896 1.624 2.82 3.617 2.986 1.169.095 2.33-.059 3.49-.193.782-.09.47-.664.47-1.03.02-6.248.038-12.493-.012-18.74-.007-1.015.236-1.325 1.276-1.276 1.88.093 3.771.06 5.656.01.697-.021.879.16.872.862-.036 4.139-.018 8.28-.018 12.418 0 4.064.004 8.128-.01 12.192m23.937-7.833c-.956 2.394-2.802 3.621-5.441 3.621-3.375 0-3.375.018-3.375-3.282v-4.061c0-2.032.025-4.064-.016-6.094-.014-.636.224-.933.793-1.157 1.474-.58 2.999-.773 4.542-.537 1.78.274 2.996 1.348 3.588 3.042.985 2.825 1.021 5.686-.091 8.468m7.332-11.58c-1.424-3.532-4.125-5.663-7.844-6.417-2.786-.564-5.532-.245-8.306.876 0-4.281-.012-8.377.009-12.472.004-.68-.062-1.056-.909-.902-2.068.376-4.15.69-6.229 1.004-.587.088-.75.351-.75.947.02 12.184.023 24.366 0 36.551 0 .61.204.856.761.983 4.383 1.001 8.81 1.722 13.302 1.114 4.815-.652 8.435-3.098 10.216-7.755 1.782-4.653 1.601-9.338-.25-13.93"/><g transform="translate(89.928 11.957)"><mask id="G" fill="#fff"><use xlink:href="#F"/></mask><path fill="#F5F5F9" d="M8.286 11.749c.21-3.129 2.177-5.104 5.083-5.11 2.8-.005 4.626 1.911 4.836 5.11H8.286zm17.504.616c-.234-2.954-.966-5.736-2.877-8.13-4.52-5.658-16.47-6.03-21.04 2.759C.183 10.242-.158 13.708.277 17.266c.6 4.903 2.944 8.66 7.685 10.495 5.23 2.023 10.493 1.29 15.7-.278.571-.172.585-.515.48-1.035-.303-1.507-.636-3.015-.76-4.54-.089-1.07-.417-.947-1.23-.689-2.975.945-6.028 1.337-9.123.712-2.18-.442-3.868-1.577-4.648-3.79-.249-.709-.23-1.04.705-1.017 2.6.061 5.2.02 7.803.02 2.6 0 5.204-.038 7.804.02.863.021 1.128-.271 1.108-1.082-.034-1.24.083-2.487-.011-3.717z" mask="url(#G)"/></g><path fill="#F5F5F9" d="M139.339 14.054c-.387 1.56-.677 3.148-.942 4.734-.132.784-.401 1.055-1.233.829-2.156-.589-4.333-.822-6.585-.471-.874.136-1.098.385-1.094 1.234.037 6.205-.004 12.407.043 18.609.01.98-.201 1.296-1.227 1.243a61.802 61.802 0 00-5.652-.002c-.895.039-1.033-.265-1.024-1.069.04-3.984.018-7.969.018-11.953 0-3.872.057-7.745-.036-11.616-.025-1.094.362-1.468 1.323-1.73 3.307-.912 6.633-1.68 10.09-1.564 1.913.064 3.81.313 5.676.788.575.148.815.274.643.968m27.792 18.13c.045 2.406-.012 4.814.022 7.22.01.631-.16.83-.808.817-2.037-.04-4.075-.059-6.11.007-.842.025-.974-.288-.971-1.035.015-5.115-.012-10.23-.03-15.345-.004-.87-.217-1.708-.485-2.53-.457-1.4-1.492-2.13-2.904-2.313-1.2-.156-2.405-.006-3.61.037-.798.027-.96.367-.956 1.107.027 6.318 0 12.638.034 18.955.004.839-.143 1.167-1.08 1.126-1.92-.081-3.847-.056-5.768-.007-.734.019-.956-.176-.947-.928.037-4.1.016-8.2.016-12.3 0-4.1.007-8.2-.007-12.3-.002-.573.032-.965.752-1.12 4.576-.982 9.163-1.703 13.87-1.127 4.927.6 8.166 3.846 8.762 8.807.435 3.638.154 7.285.22 10.93m23.143-8.43c-1.468-.038-2.938-.013-4.408-.013-1.432 0-2.865-.027-4.295.013-.575.016-.702-.154-.616-.7.421-2.661 2.487-4.485 5.113-4.469 2.541.014 4.421 1.765 4.822 4.458.08.528-.036.727-.616.711m8.114-.104c-.44-6.714-4.834-11.106-11.546-11.484-5.71-.324-10.392 2.485-12.716 7.701-1.57 3.52-1.659 7.19-.893 10.912.922 4.48 3.532 7.59 7.838 9.106 5.076 1.787 10.148 1.071 15.172-.406.55-.163.645-.496.555-1.019-.279-1.586-.54-3.176-.763-4.77-.102-.718-.324-.816-1.045-.578-3.003.999-6.09 1.4-9.226.786-2.13-.417-3.83-1.474-4.653-3.633-.308-.811-.321-1.212.764-1.185 2.562.063 5.128.02 7.69.02 2.64 0 5.28-.02 7.917.014.67.009.868-.163.933-.86.147-1.543.075-3.066-.027-4.604m23.823 15.139c.093.478-.027.647-.471.81-3.817 1.407-7.713 1.67-11.602.506-3.473-1.038-5.618-4.148-5.865-8.137-.392-6.306-.084-12.624-.17-18.935-.03-2.068.016-4.136-.018-6.204-.01-.57.188-.802.734-.883 2.118-.31 4.243-.6 6.345-.997.765-.143.792.14.788.725-.023 2.143.014 4.288-.023 6.43-.01.626.15.827.8.816 2.526-.036 5.054.014 7.577-.032.732-.013.965.173.936.925a54.349 54.349 0 00.002 4.623c.038.838-.281.985-1.033.972-2.487-.043-4.977.004-7.464-.03-.634-.009-.836.161-.82.807.045 1.615.016 3.232.016 5.196.12 1.638-.206 3.636.206 5.613.469 2.247 1.513 3.108 3.824 3.155 1.52.034 3.005-.133 4.44-.64.564-.202.856-.146.96.523.245 1.59.523 3.178.838 4.757m20.455-15.046c-3.153-.002-6.307-.002-9.464-.002.267-4.096 4.002-6.36 7.407-4.583 1.68.88 2.236 2.41 2.562 4.114.088.473-.177.471-.505.471m8.062 1.565c-.064-3.21-.66-6.285-2.723-8.863-4.746-5.926-14.873-5.75-19.74.285-2.849 3.538-3.52 7.654-3.123 11.99.428 4.691 2.413 8.52 6.891 10.599 5.461 2.537 10.988 1.726 16.509.133.713-.204.575-.686.498-1.146-.294-1.812-.616-3.617-.938-5.482-2.77 1.06-5.622 1.509-8.542 1.294-2.666-.195-5.033-1.02-6.145-3.776-.474-1.17-.406-1.242.858-1.242 5.129 0 10.257-.015 15.383.018.782.005 1.07-.19 1.028-.994-.05-.935.062-1.878.044-2.816m21.535 14.01c-2.578 1.253-5.296 1.604-8.26 1.566-2.7.072-5.454-.433-8.151-1.33-.617-.206-.895-.4-.694-1.169.417-1.588.682-3.218.99-4.836.114-.591.342-.636.91-.432 3.032 1.087 6.135 1.732 9.386 1.268.878-.127 1.63-.39 1.855-1.35.226-.965-.329-1.556-1.076-2.025-1.246-.784-2.635-1.253-3.985-1.81-.795-.326-1.606-.625-2.387-.98-4.066-1.85-5.385-4.73-5.079-8.405.326-3.898 2.942-6.557 6.961-7.316 3.88-.734 7.702-.3 11.473.788.644.186.73.444.578 1.04-.385 1.522-.752 3.053-1.024 4.598-.131.754-.49.668-.985.494-2.195-.768-4.45-1.085-6.769-.888a5.15 5.15 0 00-1.313.267c-.626.227-1.104.625-1.172 1.366-.068.727.111 1.319.746 1.76 1.06.74 2.274 1.135 3.459 1.602 2.06.81 4.063 1.699 5.88 3.024 3.312 2.412 3.844 10.25-1.343 12.769"/><path fill="#020303" d="M76.754 30.529c-.956 2.394-2.802 3.621-5.441 3.621-3.375 0-3.375.018-3.375-3.282v-4.061c0-2.032.025-4.064-.016-6.094-.014-.636.224-.933.793-1.157 1.474-.58 2.999-.773 4.542-.537 1.78.274 2.996 1.348 3.588 3.042.985 2.825 1.021 5.686-.091 8.468m7.332-11.58c-1.424-3.532-4.125-5.663-7.844-6.417-2.786-.564-5.532-.245-8.306.876 0-4.281-.012-8.377.009-12.472.004-.68-.062-1.056-.909-.902-2.068.376-4.15.69-6.229 1.004-.587.088-.75.351-.75.947.02 12.184.023 24.366 0 36.551 0 .61.204.856.761.983 4.383 1.001 8.81 1.722 13.302 1.114 4.815-.652 8.435-3.098 10.216-7.755 1.782-4.653 1.601-9.338-.25-13.93M25.83 40.206c-2.768 0-5.543-.011-8.318.012-.604.004-.727-.456-.958-.811-2.127-3.28-4.258-6.553-6.938-9.428-.487-.521-.863-1.144-1.294-1.715-.627.578-.464.936-.466 1.242-.014 3.198-.036 6.394.009 9.59.011.845-.152 1.176-1.09 1.135a70.238 70.238 0 00-5.654-.002c-.88.032-1.128-.206-1.121-1.103.039-6.732.02-13.464.02-20.199 0-5.604.014-11.208-.015-16.812C0 1.432.17 1.108.87 1.006c2.007-.29 4.014-.61 6.012-.96.802-.138.987.115.985.915-.036 6.732-.02 13.464-.02 20.196v1.4c1.55-1.703 2.92-3.169 4.245-4.675a188.375 188.375 0 003.796-4.474c.286-.346.557-.516 1.026-.514 2.827.025 5.654.011 8.737.011-2.743 3.142-5.343 6.098-8.089 8.923-.786.809-1.542 1.649-2.374 2.412-.507.465-.5.693.005 1.208 4.02 4.095 7.466 8.632 10.263 13.65.145.26.281.527.406.8.027.054-.011.14-.032.307m164.444-16.45c-1.468-.038-2.938-.013-4.408-.013-1.432 0-2.865-.027-4.295.013-.575.016-.702-.154-.616-.7.421-2.661 2.487-4.485 5.113-4.469 2.541.014 4.421 1.765 4.822 4.458.08.528-.036.727-.616.711m8.114-.104c-.44-6.714-4.834-11.106-11.546-11.484-5.71-.324-10.392 2.485-12.716 7.701-1.57 3.52-1.659 7.19-.893 10.912.922 4.48 3.532 7.59 7.838 9.106 5.076 1.787 10.148 1.071 15.172-.406.55-.163.645-.496.555-1.019-.279-1.586-.54-3.176-.763-4.77-.102-.718-.324-.816-1.045-.578-3.003.999-6.09 1.4-9.226.786-2.13-.417-3.83-1.474-4.653-3.633-.308-.811-.321-1.212.764-1.185 2.562.063 5.128.02 7.69.02 2.64 0 5.28-.02 7.917.014.67.009.868-.163.933-.86.147-1.543.075-3.066-.027-4.604"/><g transform="translate(89.928 11.957)"><mask id="I" fill="#fff"><use xlink:href="#H"/></mask><path fill="#020303" d="M8.286 11.749c.21-3.129 2.177-5.104 5.083-5.11 2.8-.005 4.626 1.911 4.836 5.11H8.286zm17.504.616c-.234-2.954-.966-5.736-2.877-8.13-4.52-5.658-16.47-6.03-21.04 2.759C.183 10.242-.158 13.708.277 17.266c.6 4.903 2.944 8.66 7.685 10.495 5.23 2.023 10.493 1.29 15.7-.278.571-.172.585-.515.48-1.035-.303-1.507-.636-3.015-.76-4.54-.089-1.07-.417-.947-1.23-.689-2.975.945-6.028 1.337-9.123.712-2.18-.442-3.868-1.577-4.648-3.79-.249-.709-.23-1.04.705-1.017 2.6.061 5.2.02 7.803.02 2.6 0 5.204-.038 7.804.02.863.021 1.128-.271 1.108-1.082-.034-1.24.083-2.487-.011-3.717z" mask="url(#I)"/></g><path fill="#020303" d="M242.666 23.744c-3.153-.002-6.307-.002-9.464-.002.267-4.096 4.002-6.36 7.407-4.583 1.68.88 2.236 2.41 2.562 4.114.088.473-.177.471-.505.471m8.062 1.565c-.064-3.21-.66-6.285-2.723-8.863-4.746-5.926-14.873-5.75-19.74.285-2.849 3.538-3.52 7.654-3.123 11.99.428 4.691 2.413 8.52 6.891 10.599 5.461 2.537 10.988 1.726 16.509.133.713-.204.575-.686.498-1.146-.294-1.812-.616-3.617-.938-5.482-2.77 1.06-5.622 1.509-8.542 1.294-2.666-.195-5.033-1.02-6.145-3.776-.474-1.17-.406-1.242.858-1.242 5.129 0 10.257-.015 15.383.018.782.005 1.07-.19 1.028-.994-.05-.935.062-1.878.044-2.816m-83.575 14.094c.01.632-.16.832-.808.818-2.037-.04-4.076-.059-6.11.007-.842.025-.974-.288-.971-1.035.015-5.115-.012-10.23-.03-15.345-.004-.87-.217-1.708-.485-2.53-.457-1.4-1.492-2.13-2.904-2.313-1.2-.156-2.405-.006-3.61.037-.798.027-.96.367-.956 1.107.027 6.318 0 12.638.034 18.955.004.839-.143 1.167-1.08 1.126-1.92-.081-3.847-.056-5.768-.007-.734.019-.956-.176-.947-.928.036-4.1.016-8.2.016-12.3 0-4.1.007-8.2-.007-12.3-.002-.573.032-.965.753-1.12 4.575-.982 9.162-1.703 13.87-1.127 4.926.6 8.165 3.846 8.761 8.807.435 3.638.154 7.285.22 10.93.045 2.405-.012 4.813.022 7.218m-114.84-.022c-4.825 1.114-9.686 1.92-14.627 1.08-4.838-.824-7.475-3.748-8.175-8.591-.453-3.147-.24-6.307-.28-9.46-.04-2.897.008-5.795-.023-8.692-.007-.62.129-.842.795-.829 2.075.046 4.152.057 6.224-.004.76-.02.836.272.834.908-.025 4.476-.014 8.954-.014 13.433 0 1.318.093 2.632.429 3.907.493 1.896 1.624 2.82 3.617 2.986 1.169.095 2.33-.059 3.49-.193.782-.09.47-.664.47-1.03.02-6.248.038-12.493-.012-18.74-.007-1.015.236-1.325 1.276-1.276 1.88.093 3.771.06 5.656.01.697-.021.879.16.872.862-.036 4.139-.018 8.28-.018 12.418 0 4.064.004 8.128-.01 12.192 0 .391.214.851-.504 1.019m219.95-.061c-2.578 1.252-5.296 1.603-8.26 1.565-2.7.072-5.454-.433-8.151-1.33-.617-.206-.895-.4-.694-1.169.417-1.588.682-3.218.99-4.836.114-.591.342-.636.91-.432 3.032 1.087 6.135 1.732 9.386 1.268.878-.127 1.63-.39 1.855-1.35.226-.965-.329-1.556-1.076-2.025-1.246-.784-2.635-1.253-3.985-1.81-.795-.326-1.606-.625-2.387-.98-4.066-1.85-5.385-4.73-5.079-8.405.326-3.898 2.942-6.557 6.961-7.316 3.88-.734 7.702-.3 11.473.788.644.186.73.444.578 1.04-.385 1.522-.752 3.053-1.024 4.598-.131.754-.49.668-.985.494-2.195-.768-4.45-1.085-6.769-.888a5.15 5.15 0 00-1.313.267c-.626.227-1.104.625-1.172 1.366-.068.727.111 1.319.746 1.76 1.06.74 2.274 1.135 3.459 1.602 2.06.81 4.063 1.699 5.88 3.024 3.312 2.412 3.844 10.25-1.343 12.769m-50.523.28c-3.817 1.407-7.713 1.67-11.602.505-3.473-1.037-5.618-4.147-5.865-8.136-.392-6.306-.084-12.624-.17-18.935-.03-2.068.016-4.136-.018-6.204-.009-.57.188-.802.734-.883 2.118-.31 4.243-.6 6.345-.997.765-.143.793.14.788.725-.023 2.143.014 4.288-.023 6.43-.01.626.15.827.8.816 2.526-.036 5.054.014 7.577-.032.732-.013.965.173.936.925a54.255 54.255 0 00.002 4.623c.038.838-.281.985-1.033.972-2.487-.043-4.977.004-7.464-.03-.634-.009-.836.161-.82.807.045 1.615.016 3.232.016 5.196.12 1.638-.206 3.636.206 5.613.469 2.247 1.513 3.108 3.824 3.155 1.52.034 3.006-.133 4.44-.64.564-.202.856-.146.96.523.245 1.59.523 3.178.838 4.757.093.478-.027.647-.471.81m-82.401-25.546c-.387 1.56-.677 3.148-.942 4.734-.132.784-.401 1.055-1.233.829-2.156-.589-4.333-.822-6.585-.471-.874.136-1.098.385-1.094 1.234.037 6.205-.004 12.407.043 18.609.01.98-.201 1.296-1.227 1.243a61.802 61.802 0 00-5.652-.002c-.895.039-1.033-.265-1.024-1.069.04-3.984.018-7.969.018-11.953 0-3.872.057-7.745-.036-11.616-.025-1.094.362-1.468 1.323-1.73 3.307-.912 6.633-1.68 10.09-1.564 1.913.064 3.81.313 5.676.788.575.148.815.274.643.968"/></g></g></svg>