<svg xmlns="http://www.w3.org/2000/svg" width="1522.71" height="398.26" fill="none" xmlns:v="https://vecta.io/nano"><path d="M700.729 42.677a40.47 40.47 0 0 1-40.277 39.543c-22.935 0-39.994-18.444-39.994-41.095a41.21 41.21 0 0 1 12.07-29.055C640.234 4.363 650.682.024 661.582 0a42.36 42.36 0 0 1 28.527 12.315l-6.44 8.107a34.93 34.93 0 0 0-22.087-9.492c-8.008.009-15.687 3.19-21.352 8.85a30.25 30.25 0 0 0-8.87 21.344c-.381 7.442 2.119 14.747 6.982 20.392s11.715 9.205 19.132 9.931a28.97 28.97 0 0 0 20.696-6.025 28.98 28.98 0 0 0 10.81-18.65h-33.272v-9.746h45.022zm38.016-5.479h-6.157a12.4 12.4 0 0 0-8.665 3.64 12.41 12.41 0 0 0-3.621 8.674v31.889H709.4V26.578h8.953v4.491a17.53 17.53 0 0 1 5.972-3.542 17.5 17.5 0 0 1 6.879-.949h11.75zm59.849 44.204h-9.49v-7.006c-3.863 3.816-8.796 6.371-14.143 7.317s-10.856.251-15.796-2.005c-5.855-2.65-10.632-7.218-13.541-12.947a28.25 28.25 0 0 1-2.461-18.572c1.316-6.29 4.74-11.945 9.703-16.027a28.24 28.24 0 0 1 17.597-6.43 26.64 26.64 0 0 1 18.755 7.854V26.58h9.49zm-11.298-23.218a17.18 17.18 0 0 0-.883-10.781 17.19 17.19 0 0 0-7.152-8.113c-3.196-1.862-6.908-2.644-10.584-2.229s-7.119 2.008-9.817 4.539a17.18 17.18 0 0 0-5.157 9.51 17.17 17.17 0 0 0 1.55 10.703c1.656 3.309 4.336 5.992 7.641 7.654a17.17 17.17 0 0 0 10.702 1.57 17.79 17.79 0 0 0 8.753-4.44c2.443-2.271 4.196-5.189 5.059-8.412zM820.4 23.782v3.079h17.343v9.519H820.4v45.022h-10.62V24.066c0-12.034 8.671-19.011 19.575-19.011h13.162l-4.491 10.339h-8.671a8.48 8.48 0 0 0-3.372.492 8.54 8.54 0 0 0-2.903 1.784c-.836.782-1.507 1.731-1.966 2.781a8.48 8.48 0 0 0-.713 3.33zm75.527 57.62h-9.235v-7.006a26.72 26.72 0 0 1-29.911 5.312c-4.225-1.847-7.937-4.694-10.817-8.295a28.41 28.41 0 0 1-5.708-12.38 28.32 28.32 0 0 1 .471-12.234c1.047-3.992 2.966-7.711 5.607-10.888a28.19 28.19 0 0 1 9.686-7.49 28.26 28.26 0 0 1 11.945-2.689 26.57 26.57 0 0 1 18.727 7.854V26.58h9.519v54.824zM884.63 58.184a17.18 17.18 0 0 0-.883-10.781 17.19 17.19 0 0 0-7.153-8.113c-3.196-1.862-6.908-2.644-10.584-2.229a17.19 17.19 0 0 0-13.421 24.751 17.16 17.16 0 0 0 18.342 9.223c3.3-.573 6.362-2.095 8.815-4.374a17.29 17.29 0 0 0 4.998-8.477zm69.737-8.952v32.17H943.35V48.949c-.027-3.255-1.337-6.368-3.64-8.665a12.41 12.41 0 0 0-8.674-3.623 12.25 12.25 0 0 0-4.709.922 12.22 12.22 0 0 0-3.996 2.662c-1.14 1.143-2.047 2.498-2.662 3.993a12.2 12.2 0 0 0-.919 4.712v32.453h-10.903V26.578h8.925v4.801a21.65 21.65 0 0 1 14.547-5.649c6.165.084 12.049 2.599 16.367 7a23.36 23.36 0 0 1 6.681 16.501zm64.31 32.17h-9.208v-7.006c-3.861 3.816-8.794 6.371-14.141 7.317a26.79 26.79 0 0 1-15.797-2.005c-5.857-2.65-10.632-7.218-13.541-12.947a28.25 28.25 0 0 1-2.462-18.572 28.23 28.23 0 0 1 9.704-16.027c4.962-4.082 11.169-6.353 17.596-6.43a26.64 26.64 0 0 1 18.754 7.854V26.58h9.492v54.824zm-11.297-23.218a17.18 17.18 0 0 0-.883-10.781 17.19 17.19 0 0 0-7.153-8.113c-3.196-1.862-6.908-2.644-10.584-2.229a17.16 17.16 0 0 0-9.817 4.539 17.19 17.19 0 0 0-5.156 9.51 17.17 17.17 0 0 0 1.552 10.703 17.16 17.16 0 0 0 18.342 9.223c3.3-.573 6.362-2.095 8.815-4.374a17.33 17.33 0 0 0 4.998-8.477zM861.409 137.59l-86.534 181.245-86.087-180.2-.507-1.044H651.25l-31.57 258.887h41.506l22.022-180.618 74.599 152.45h34.912l73.674-152.39 22.022 180.558h41.507L898.29 137.59zm115.031-4.088a25.2 25.2 0 0 0-10.02 1.552 25.23 25.23 0 0 0-8.597 5.374 25.2 25.2 0 0 0-5.786 8.328 25.19 25.19 0 0 0 0 19.861 25.23 25.23 0 0 0 5.786 8.328 25.29 25.29 0 0 0 8.597 5.374 25.2 25.2 0 0 0 10.02 1.552 25.2 25.2 0 0 0 10.02-1.552 25.29 25.29 0 0 0 8.597-5.374 25.28 25.28 0 0 0 5.786-8.328 25.19 25.19 0 0 0 0-19.861 25.28 25.28 0 0 0-5.786-8.328c-2.474-2.354-5.398-4.183-8.597-5.374a25.19 25.19 0 0 0-10.02-1.552zm-20.022 262.975h40.015V219.678h-40.015zm279.178-181.125c-15.158 0-42.611 4.446-59.5 33.39-10.712-20.888-31.54-33.39-56.426-33.39-22.35 0-42.342 10.175-52.219 25.99v-21.544h-39.985v176.679h39.985v-94.949c0-35.27 23.543-47.743 43.715-47.743 20.888 0 34.435 17.158 34.435 43.715v98.888h40.373V296.127c2.208-25.811 18.172-42.372 40.791-42.372h.686c22.38 0 36.285 16.74 36.285 43.715v98.888h40.373V295.739c0-51.204-24.976-80.566-68.511-80.566zm97.396 181.125h39.985V219.678h-39.985zm19.992-262.975a25.2 25.2 0 0 0-10.02 1.552 25.23 25.23 0 0 0-8.597 5.374 25.2 25.2 0 0 0-5.786 8.328 25.19 25.19 0 0 0 0 19.861 25.23 25.23 0 0 0 5.786 8.328 25.29 25.29 0 0 0 8.597 5.374 25.2 25.2 0 0 0 10.02 1.552c14.92 0 26.676-11.041 26.676-25.184-.051-3.426-.782-6.806-2.157-9.945a25.71 25.71 0 0 0-5.852-8.325c-2.486-2.357-5.416-4.195-8.624-5.404s-6.621-1.761-10.044-1.629zm168.653 88.414c-6.356-3.79-19.187-6.565-30.585-6.565-21.634 0-37.299 11.518-46.669 34.286v-29.839h-40.373v176.679h40.373v-64.214c0-49.892 16.203-78.508 44.431-78.508 8.582.113 17.041 2.077 24.797 5.759l2.148.985 6.953-38.045z" fill="#000"/><path d="M-313.5 797.295h76.372l53.51-102.757-37.035-71.084zm415.385-176.743l-41.759 80.151 48.907 95.413 41.789-80.483zm-12.688-24.541L.045 423.017l-43.97 77.551 91.301 175.685zm-138.876 105.78L.045 797.234h84.791l-92.18-176.893zm-183.633-102.757l-41.578-80.212-53.085 102.093 40.79 78.941zm-107.079 46.18l-37.944 74.922 41.76 75.83 37.005-71.598zm282.355-121.586l-44.212 78.065 39.911 75.83 42.396-81.45zm-166.767-103.694l-38.156 74.227 148.385 283.761 39.579-75.949-74.98-143.891z" fill="url(#A)" transform="translate(378.335 -399.035)"/><defs><linearGradient id="A" x1="-113.666" y1="425.918" x2="-113.666" y2="926.468" gradientUnits="userSpaceOnUse"><stop stop-color="#f2c144"/><stop offset=".24" stop-color="#f1a03b"/><stop offset=".57" stop-color="#f17a31"/><stop offset=".84" stop-color="#f0632a"/><stop offset="1" stop-color="#f05a28"/></linearGradient></defs></svg>