<?xml version="1.0" standalone="no"?>
<!DOCTYPE svg PUBLIC "-//W3C//DTD SVG 20010904//EN"
 "http://www.w3.org/TR/2001/REC-SVG-20010904/DTD/svg10.dtd">
<svg version="1.0" xmlns="http://www.w3.org/2000/svg"
 width="341.000000pt" height="341.000000pt" viewBox="0 0 341.000000 341.000000"
 preserveAspectRatio="xMidYMid meet">
<metadata>
Created by potrace 1.14, written by Peter Selinger 2001-2017
</metadata>
<g transform="translate(0.000000,341.000000) scale(0.100000,-0.100000)"
fill="#000000" stroke="none">
<path d="M0 1705 l0 -1705 1705 0 1705 0 0 1705 0 1705 -1705 0 -1705 0 0
-1705z m930 1569 c17 -44 13 -66 -12 -62 -22 3 -43 50 -33 76 8 21 35 13 45
-14z m110 -63 c0 -18 -65 -45 -82 -35 -20 13 -7 42 25 51 39 12 57 7 57 -16z
m-133 -27 c8 -21 -7 -34 -50 -41 -33 -5 -37 -3 -37 16 0 35 75 56 87 25z m51
-26 c7 -7 12 -27 12 -45 0 -26 -4 -33 -20 -33 -14 0 -21 9 -26 34 -9 49 7 71
34 44z m992 -58 c156 -29 370 -103 370 -130 0 -8 -23 -68 -52 -133 -59 -137
-45 -130 -184 -78 -134 49 -223 64 -379 64 -204 0 -333 -31 -515 -124 -155
-79 -306 -212 -409 -362 -86 -125 -164 -334 -178 -474 -3 -34 -9 -67 -14 -74
-6 -11 -32 -11 -141 0 -73 7 -136 15 -140 18 -13 7 -9 67 11 171 116 600 595
1051 1206 1135 94 13 318 6 425 -13z m614 -270 c154 -116 306 -301 396 -480
37 -73 80 -177 80 -191 0 -7 -243 -99 -260 -99 -5 0 -38 60 -73 133 -77 156
-160 266 -277 364 -44 37 -80 73 -80 79 0 22 144 224 159 224 9 0 34 -14 55
-30z m476 -114 c30 -18 55 -39 55 -46 0 -18 -110 -84 -125 -75 -19 12 -10 34
20 50 17 9 30 19 30 23 0 4 -13 16 -30 25 -29 17 -38 36 -23 50 10 10 13 9 73
-27z m-1245 -110 c42 -18 65 -61 65 -123 l0 -49 48 -12 c26 -7 79 -29 119 -48
39 -19 75 -34 79 -34 4 0 26 18 50 40 34 32 51 40 81 40 32 0 45 -9 106 -70
68 -68 70 -70 64 -111 -4 -31 -16 -52 -45 -81 l-39 -40 35 -65 c19 -36 42 -91
52 -122 l16 -56 58 -3 c104 -5 130 -42 125 -172 -4 -70 -7 -83 -30 -106 -22
-21 -39 -27 -92 -31 l-66 -6 -6 -38 c-4 -21 -24 -75 -46 -120 l-39 -81 40 -44
c33 -36 40 -51 40 -85 0 -36 -7 -48 -61 -104 -85 -88 -123 -93 -199 -26 -19
17 -39 31 -43 31 -4 0 -31 -12 -60 -26 -29 -15 -81 -37 -117 -49 l-65 -22 -3
-54 c-1 -30 -7 -64 -14 -76 -35 -69 -241 -72 -277 -5 -6 11 -13 46 -15 79 -2
32 -5 59 -5 59 -1 1 -22 7 -48 13 -26 7 -81 28 -122 47 l-74 34 -43 -40 c-36
-33 -51 -40 -84 -40 -36 0 -48 7 -97 52 -96 92 -105 143 -34 212 l38 37 -38
75 c-20 41 -43 97 -49 125 l-12 49 -59 0 c-51 0 -63 4 -91 29 -31 27 -33 34
-36 108 -2 43 1 90 7 105 16 41 66 68 127 68 l52 0 11 48 c7 26 28 80 47 120
l35 73 -40 46 c-33 37 -41 53 -41 85 0 34 7 47 56 98 90 94 131 100 207 31
l42 -39 49 28 c27 16 82 39 123 51 l73 23 0 57 c0 47 5 63 25 88 14 16 38 32
53 34 61 9 135 6 167 -7z m-1692 -556 c4 -15 -1 -22 -19 -26 -40 -10 -27 -52
16 -50 19 1 25 -4 25 -19 0 -27 -41 -33 -47 -7 -4 15 -12 18 -30 15 -17 -3
-27 0 -32 12 -8 21 0 35 20 35 9 0 14 11 14 30 0 25 4 30 24 30 15 0 26 -7 29
-20z m60 -29 c6 -23 0 -31 -24 -31 -22 0 -33 16 -25 35 8 22 43 18 49 -4z
m2940 -121 c5 -30 6 -134 4 -230 -4 -141 -10 -196 -30 -280 -67 -278 -200
-508 -409 -705 -199 -188 -453 -316 -719 -361 -58 -10 -112 -15 -120 -12 -12
5 -18 37 -27 139 -7 79 -8 137 -3 142 5 5 45 15 89 23 241 42 428 139 602 314
135 134 214 262 275 442 46 140 66 346 46 470 -4 26 -4 53 0 59 8 13 219 58
259 56 22 -2 26 -8 33 -57z m-2515 -282 c7 -7 12 -26 12 -44 0 -52 45 -213 87
-309 151 -348 486 -601 863 -654 40 -5 77 -14 82 -19 5 -5 3 -65 -4 -143 l-13
-134 -75 2 c-142 3 -374 76 -535 170 -376 217 -637 597 -697 1015 -7 56 -9 91
-3 97 6 6 62 14 125 19 63 5 122 10 131 11 8 0 20 -4 27 -11z m2563 -571 c47
-36 51 -95 8 -131 -60 -51 -139 -17 -139 59 0 66 81 111 131 72z m-2782 -252
c23 -22 18 -75 -8 -97 -47 -37 -111 -8 -111 51 0 59 76 88 119 46z m1791 -560
c0 -25 -1 -25 -84 -25 -85 0 -103 7 -92 35 4 12 25 15 91 15 84 0 85 0 85 -25z
m-92 -67 c-3 -23 -5 -23 -163 -23 -158 0 -160 0 -163 23 l-3 22 166 0 166 0
-3 -22z"/>
<path d="M1465 3054 c-307 -54 -611 -232 -806 -470 -161 -197 -273 -451 -303
-686 l-5 -47 52 -6 c29 -3 72 -6 96 -8 l45 -2 12 73 c47 274 205 543 417 710
321 253 728 323 1118 191 50 -17 94 -27 99 -23 4 5 24 44 43 87 l36 77 -27 14
c-59 30 -212 76 -302 91 -118 19 -365 18 -475 -1z"/>
<path d="M2460 2725 c-27 -41 -50 -78 -50 -82 0 -5 24 -28 54 -52 108 -85 232
-251 297 -396 19 -41 39 -75 46 -75 17 0 156 50 167 60 22 21 -97 245 -199
375 -79 100 -230 245 -255 245 -5 0 -32 -34 -60 -75z"/>
<path d="M1621 2553 c-16 -15 -21 -31 -23 -87 l-3 -68 -89 -29 c-49 -16 -115
-45 -148 -65 l-59 -36 -54 51 c-30 28 -62 51 -71 51 -24 0 -124 -103 -124
-127 0 -12 20 -42 45 -69 25 -26 45 -53 45 -61 0 -7 -11 -30 -23 -51 -29 -46
-73 -155 -81 -203 l-6 -36 -77 -6 c-41 -3 -81 -11 -87 -17 -16 -16 -14 -153 3
-173 9 -11 34 -17 84 -19 70 -3 72 -4 80 -33 24 -81 63 -175 89 -217 l30 -48
-51 -56 c-40 -43 -50 -61 -46 -78 9 -31 100 -116 124 -116 11 0 42 20 68 45
25 25 50 45 55 45 5 0 50 -20 101 -45 51 -24 114 -49 142 -55 27 -6 53 -16 57
-23 4 -7 8 -40 8 -74 0 -77 17 -93 100 -93 85 0 100 15 100 101 0 79 -6 73
109 105 35 10 93 35 128 56 72 44 75 43 138 -21 21 -23 45 -41 53 -41 7 0 38
23 68 51 69 66 70 87 7 151 l-47 48 39 72 c22 40 49 107 61 148 l22 75 69 5
c95 7 103 15 103 109 0 47 -5 82 -12 89 -7 7 -40 12 -78 12 -36 0 -70 4 -75 8
-6 4 -16 30 -23 57 -15 59 -58 159 -84 197 -26 38 -23 49 27 98 25 24 45 54
45 65 0 27 -99 125 -126 125 -11 0 -41 -20 -66 -45 -26 -25 -52 -45 -57 -45
-6 0 -36 14 -67 32 -31 17 -95 43 -142 58 l-87 27 -5 72 c-6 90 -18 101 -106
101 -44 0 -68 -5 -83 -17z m244 -454 c85 -34 194 -142 225 -224 28 -74 36
-177 20 -255 -45 -212 -279 -360 -491 -310 -154 36 -262 138 -310 291 -68 219
68 456 296 516 71 18 187 10 260 -18z"/>
<path d="M1603 2066 c-235 -77 -334 -342 -203 -545 42 -64 96 -111 167 -143
38 -18 67 -22 138 -22 116 -1 190 30 265 110 76 80 94 128 95 249 0 89 -3 106
-27 155 -60 123 -180 201 -317 207 -46 2 -93 -3 -118 -11z"/>
<path d="M2955 1890 l-90 -16 3 -89 c20 -535 -292 -999 -788 -1173 -47 -16
-118 -35 -159 -43 l-74 -13 7 -95 c4 -52 8 -97 10 -98 8 -8 211 39 293 68 48
17 131 53 184 81 366 190 626 547 705 966 21 115 25 416 5 426 -3 1 -46 -5
-96 -14z"/>
<path d="M393 1563 c-31 -4 -33 -7 -33 -41 0 -48 31 -176 66 -272 114 -319
363 -598 671 -753 100 -51 253 -102 366 -122 54 -10 100 -16 102 -13 2 2 7 48
11 101 l7 97 -34 0 c-113 0 -368 100 -513 200 -94 65 -241 216 -302 310 -88
137 -156 310 -179 458 l-7 42 -61 -2 c-34 0 -77 -3 -94 -5z"/>
<path d="M3071 991 c-16 -28 9 -56 42 -47 20 5 27 13 27 30 0 37 -52 50 -69
17z"/>
<path d="M302 749 c2 -6 8 -10 13 -10 5 0 11 4 13 10 2 6 -4 11 -13 11 -9 0
-15 -5 -13 -11z"/>
</g>
</svg>
